<?xml version="1.0" encoding="utf-8"?>
<!-- Generator: Adobe Illustrator 21.0.0, SVG Export Plug-In . SVG Version: 6.00 Build 0)  -->
<svg version="1.1" id="Layer_1" xmlns="http://www.w3.org/2000/svg" xmlns:xlink="http://www.w3.org/1999/xlink" x="0px" y="0px"
	 viewBox="0 0 143.6 206.4" style="enable-background:new 0 0 143.6 206.4;" xml:space="preserve">
<style type="text/css">
	.st0{fill:#CEC7B6;}
	.st1{fill:#948B7D;}
	.st2{fill:#FFFFFF;}
	.st3{display:none;fill:#948B7D;}
</style>
<g id="Laag_6">
	<g>
		<path class="st0" d="M70.7,168.8c1.4,0.3,2.6,0.3,4-0.7c2.6-1.9,7.3-0.6,9.2,2.8c1.3,2.4,2.9,3.5,5.5,4.2c1.1,0.3,2.2,0.8,3.2,1.6
			c-0.1-0.4-0.1-0.7-0.1-1.1c0-0.1,0-0.2,0-0.3c-0.1,0-0.2-0.1-0.2-0.2c-2.3-1.4-3.5-3.2-3.2-5.9c0.1-1,0.5-2.2-0.6-2.9
			c-0.4,1.7-2.2,2.8-1.6,5.2c0.1,0.4-0.7,0.3-1.1,0c-0.8-0.7-1.3-1.4-1.2-2.5c0.1-1.2,0.2-2.3-1.2-2.8c-0.8-0.3-0.6-0.9-0.3-1.4
			c0.9-1.4-0.2-2-1.1-2.3c-3-1-6.5-1.9-8.9,0.4c-2.5,2.3-5,1.6-7.6,1.6c-0.4,1.9-0.7,3.9-0.6,5.9c0.1,1.8-0.1,3.9-1.8,5.2
			c-0.2,0.2-0.4,0.3-0.6,0.5c-0.4,1.7-0.9,3.3-1.5,5c-0.1,0.2-0.1,0.4-0.2,0.6c0.1,0.7,0.2,1.3,0.2,2c0.7-0.3,1.4-0.6,2.2-0.7
			c1.9,0.1,2.7,1.8,4.2,2.5c0.3,0.2,0.6,0.7,0.5,0.8c-1,1.9,0,5-3.1,5.8c-0.1,0.3-0.4,0.7-0.3,0.9c1.3,2.5-0.1,7.2-1.7,8.8
			c-0.4,0.4-0.9,0.8-0.5,1.5c6.3,0,12.6,0.1,18.9,0c2.1,0,4.3,0.5,6.4-0.3c-1.7-1.4-3.8-5.4-4.8-7.6c-0.6-1.2-1.4-0.3-2.1,0.2
			c0,2.2-1.9,6.6-4.2,6c-0.4-0.1-0.8-0.6-1.2-0.1c-1.5,1.8-2.6,0.4-3.8-0.4c-0.4-0.3-0.5-1.1-1.3-0.8c-1.2,0.4-1-0.8-1.2-1.3
			c-0.3-0.8,0.3-4.1,0.9-4.4c2.4-1.1,4.7-2.3,7.4-0.7c0.7,0.4,1.9-0.1,2.8-0.2l0.1,0.1l0.1-0.1c0.2-0.4,0.1-1,0.8-0.6
			c1.4,0.1,1.2-0.8,1.2-1.6c0-1.1-0.1-2.5-1.3-2.6c-3.2-0.4-5.9-3.6-9.6-1.6c-0.8,0.4-1.7-0.1-2.3-0.9c-0.6-0.7-0.1-1.3,0.3-1.9
			c1.5-2.4,2.9-4.7,4.4-7.1c0.4-0.6,1-1,1.6-0.9c0.9,0.1,0.6,1,0.6,1.6c-0.1,2.1,0.5,4.1,0.8,6.3c1.9-1.4,0-3.4,1-4.9
			c0.3-0.5-0.3-1.6,0.8-1.6c0.8-0.1,1.3,0.6,1.5,1.3c0.4,1.6,2,2.6,1.9,4.5c0.7-1,3.1-1.3,0.9-3.2c-0.4-0.3-0.4-0.9-0.1-1.3
			c0.5-0.6,0.8,0,1.1,0.3c0.4,0.5,0.9,0.9,1.6,0.9c0.6,0,1.3-0.1,1.4-0.7c0.3-1.2-0.6-0.4-1-0.6c-1.1-0.7-1.2-1.8-1.2-2.9
			c0-1.1-0.7-1.5-1.6-1.4c-1.8,0.3-3.1-0.8-4.1-1.9c-1.1-1.3-1.7-0.9-2.7,0c-1.4,1.2-3.5,0.9-4.1-0.7c-0.4-1-0.8-1.2-1.7-1.2
			c-1.4,0.1-1.7-1-1.5-1.9C69.1,168.2,70,168.6,70.7,168.8z"/>
		<path class="st0" d="M93.4,69.1c-1.8-1.1-3.6-2.2-5.5-3.3c-2.4-1.3-4.2-3-4.7-5.8c-0.7,0-1.4-0.2-1.3-1c0.5-2.9-1.8-3-3.5-3.2
			c-1.4-0.2-2.6-0.6-3.9-1c-2.9-0.9-4.3-0.1-5.2,2.9c-0.6,2.4-3.6,3.2-6.1,1.7c-0.4,3.1-2.2,5.6-3.5,8.3c2.2-1.1,3.5-3.2,4.4-5.1
			c0.5-0.8,0.7-1.5,1.6-1.4c2.7,0.4,5-1.5,7.5-1.3c2.6,0.2,5.2,1.1,7.7,2.2c0.2,0.1,0.5,0.6,0.5,0.8c-0.4,1.9-2.3,2.8-3.4,4.2
			c-0.6,0.7-1.4,0.7-2.1,0c-1.2-1.1-2-1.3-2.2,0.8c-0.2,1.6-1.6,1.8-3,0.4c-1.4-1.4-3.2-2.8-5-1.4c-2,1.5-4.4,2.1-6.4,3.4
			c-0.3,0.2-0.6,0.3-0.9,0.1c-0.1,3.1-1.1,6.3-2.7,9.2c2.6-1.4,5.2-2.4,7.9,0.2c0.8-1.4,0.5-2.3-1.1-2.9c-1.7-0.6-1.4-1.4,0-2.2
			c1-0.6,2.1-1,2.5-2.4c0.3-0.9,1.1-0.8,1.8-0.3c0.9,0.7,1.8,0.7,2.3-0.2C70,70,71.4,70,73.2,70c2.7,0.1,5.4-0.2,7.5,1.9
			c0.9,0.9,1.5,0.8,2.3-0.3c1.9-2.7,3.9-2.7,6.4-0.6c0.7,0.6,1.4,1.2,2.2,1.8C91.9,71.5,92.6,70.3,93.4,69.1z"/>
		<path class="st0" d="M95.9,99.1c0-0.3-0.1-0.5-0.1-0.8c-0.1,0-0.2,0-0.3,0h-0.5c-1.1-0.1-2-0.6-3-1.3c-1.6-1.2-3.2-2.7-5-3.7
			s-3.3-2.4-4.9-3.7c0.1,1.6-0.6,2.3-2.1,2c-2-0.4-3.9,0.7-5.9,0.1c-1-0.3-1.9,0.6-2.4,1.7c-0.4,0.8-0.8,1.6-1.7,1.9
			c-2.1,0.7-4.5,0.4-6.5,2.5c0.3-2.6,1.6-4.1,2.6-5.6c0.9-1.4,2.2-2.4,4.1-2.1c2.2,0.3,4.1-1.2,6.3-1.1c1.8,0,3.6-0.2,5.4,0.1
			c0.8-1-0.1-1-0.6-1.2c-2.9-1.2-6-0.7-9-0.6c-2.3,0.1-4.3,1.7-6.7,0.8c-0.7,0.8,1.2,2.9-1.3,2.8c-1,3-3.2,5.2-5.5,7
			c-0.3,0.2-0.5,0.4-0.8,0.6c-0.1,1.7-0.4,3.3-0.7,5c0.7,0,0.6,0.6,0.4,1.4c0.1,0.7,0.7,1.2,0.5,1.9c1.5,0.5,2.7,1.7,4.4,1.9
			c-0.1-0.9-1.2-1.9-0.2-2.6c1-0.7,1.7,0.3,2.3,1.1c0.2,0.2,0.5,0.4,0.8,0.4c0.5,0.1,3-3.4,2.9-3.9c-0.1-0.8-0.2-1.6-0.3-2.4
			c0-0.2-0.1-0.5-0.1-0.7c2.9,0.2,2.6-4,5.8-4c2.9-0.1,6.4,3.3,7.4,5.9c0.1,0.4,0.1,0.8,0.6,1.1c0.6-0.3,0.3-0.9,0.4-1.4
			c0.3-2.6,0.9-3,3.2-1.6c1.5,1,1.7-0.1,1.9-1c0.4-1.6,1-1.7,2.3-0.8c1.1,0.7,2.4,1.2,3.8,1.9c-1.1,0.9-3-0.2-3.2,1.7
			c-0.1,0.6-0.2,1.4,0.6,1c1.5-0.7,3.3,0.1,4.5-1.3c0-0.5-0.1-1.1,0.4-1.3c0.1-0.1,0.3-0.1,0.5-0.1C96.1,100.2,96,99.6,95.9,99.1z"
			/>
		<path class="st0" d="M90,38.7l-0.6-0.3c-0.3-0.2-0.6-0.4-0.7-0.6c0-0.1-0.3-0.4-1.1-1.2c-1.5,0.8-1.9-1.3-3.2-1.1
			c-0.3,0.1-0.7,0.5-0.8,0.4c-2.6-1.5-4.3,0.7-5.3,2.1c-1.6,2.2-2.8,0.9-4,0.3c-1.2-0.7-2-1.4-2.1,0.7c-0.1,2-1.3,1.7-2.2,0.8
			c-1-0.9-1.7-2.1-3.1-3.1c0.7,3.3-1.5,2.6-2.8,3c-1,0.3-1-0.3-1.1-1c0-0.7-0.1-1.4-0.2-2.1c-2,1.5-3.3,3.8-5.1,5.5
			c-0.6,0.6-1.3,1.2-1.9,1.7c0.6,0.8,0.9,1.8,1,2.9c0.1,1.4-0.6,2.8-1.7,3.7c1.9-1.1,4.5-1.2,5.7,0.4c-0.1,0.4,0.1,0.5,0.4,0.5
			c1.5,0.3,2.9,0.6,2.7-1.8c-0.1-1,0.5-1.1,1.4-0.8c0.5,0.2,1,0.3,1.3-0.2c0.3-0.5,0-0.9-0.3-1.3c-0.5-0.6-1.6-1.2-0.6-1.9
			c0.8-0.6,1.3,0.4,1.7,1.1c0.3,0.5,0.3,1.4,1.2,1.2c0.6-0.2,0.8-0.9,1-1.5c0.9-2.7,2.2-3.1,4.5-1.4c0.8-0.7-0.4-2.5,1.7-2.6
			c2.7-0.1,2.9,0,4.9,3.7c0.7-0.2,0.4-0.8,0.6-1.2c0.6-1.4,1.3-2.7,2.9-3.2c1.3-0.5,2.2,0.2,2.8,0.9v-0.5c-0.2-0.5-0.2-1.2-0.6-1.5
			c-0.8-0.7-0.7-1.4,0-2c0.8-0.6,1.2,0.3,1.8,0.6c1.3,0.6,1.3,2.7,2.9,2.8C90.7,40.8,90.4,39.7,90,38.7z"/>
		<path class="st0" d="M89.5,45.1c-0.2-1-1.5-1.3-2-2c-0.1-0.2-0.3-0.5-0.5-0.8v0.1C84,39.9,87.5,43.1,89.5,45.1z"/>
		<path class="st1" d="M83.5,34c-0.5-0.3-1.3-0.4-1.3-1.2c0-0.8,0.8-1,1.4-1.1c2.1-0.4,1.7-1.4,0.6-2.5c-2.2-2.1-2.3-5-2.8-7.7
			c-0.4-1.9,1.9-2,3-2.8c0.5-0.4,0.9-0.4,1.3-0.3c0.3-0.5,0.6-1,1.1-1.4c-0.1-0.3-0.3-0.7-0.7-1c-0.8-0.8-1.2-0.8-2.4-0.7
			c-1.9,0.2-4.2,1.3-6.2-0.4c-1.2-1-3-1.1-4.5-1.3c-1.4-0.2-0.7,1.3-0.9,2c-0.1,0.3,0,0.8-0.5,0.9c-0.2,0-0.6-0.3-0.7-0.5
			c-0.7-1.3-1.3-2.1-2.9-1c-0.6,0.4-1.7-1.7-2.5,0c-0.5,1.1,0.4,2,0.7,3c0.4,1.3-0.4,2.4-0.5,3.7c0,0.5-0.9,0.9-1.2,0.3
			c-0.6-1.2-2-2.2-1.3-3.7c0.7-1.6-0.2-2.5-1.5-3.8c0.1,1.5-0.3,2.1-1.4,2.6c-1.6,0.7-2.1,1.7-1.1,3.6c0.7,1.1,2.7,2.3,1.6,3.6
			c-0.9,1.2-2-0.9-3.2-1.1c-1.3-0.3-2.5-0.2-3.8-0.3c1,1.5,2.8,2,4.3,2.8c1.4,0.7,1.8,1.5,1.4,3c-0.4,1.4-0.7,2.9,0.5,4.2
			c1.4,1.5,1.1,4-0.5,5.5c-0.5,0.5-1.1,0.8-1.7,1.3c-0.7,0.6-1.4,1.2-2.2,1.8c0,0.7,0,1.3-0.1,2c0,0,0.1,0.1,0.1,0.1
			c0.7-0.6,1.4-1.2,2-1.8c1.9-1.7,3.1-4,5.1-5.5c0-0.2,0-0.3,0.1-0.4c0.5-1.4,0.7-3,2.6-3.5c1.2-0.3,2.6-0.5,1.4-2.5
			c-0.6-1,1.1-1.6,2-1.7c2.3-0.3,4.6,0.1,6.9-0.5c0.5-0.2,1.5,0.1,1.5,0.8c0.1,1.1-1.4,0.7-1.9,1.8c2.7,0.1,5.1,0.8,6.6,3.1
			c0.8,0.7,1.4,1.7,2.5,1.9c1.3-0.2,1.7,1.9,3.2,1.1C86.8,34.8,85,34.6,83.5,34z"/>
		<path class="st0" d="M86.8,10.3c0,0,0-0.1,0-0.1c-1.2-1.1-2.4-2.4-2.3-2.9C81,5.4,77.2,4.1,74,1.8c-2.3,1.1-4.8,1.1-7.2,1.5
			c-1.7,0.3-3.3,0.8-4.8,1.4c-1.7,0.6-2.4,2.8-2.8,4.3c-0.7,2.6-2.4,4.3-4.1,5.9c0,0,0,0,0,0c-0.3,0.2-0.6,0.4-0.9,0.5
			c0.1-0.2,0.1-0.3-0.3,0c-0.1,0.1-0.1,0.2-0.1,0.2c-2.2,1.5-4.2,3.7-3.6,6.5c0.2,1,0.4,1.3,1.3,0.6c0.4-0.3,0.9-0.7,1.4-0.9
			c2.8-1.2-2.1,1.1,1.1,0.7c1.3,0.1,2.5,0,3.8,0.3c1.2,0.2,2.3,2.3,3.2,1.1c1.1-1.3-1-2.4-1.6-3.6c-1-1.8-0.5-2.9,1.1-3.6
			c1.1-0.5,1.5-1.2,1.4-2.6c1.3,1.3,2.2,2.2,1.5,3.8c-0.6,1.6,0.8,2.5,1.3,3.7c0.3,0.7,1.1,0.3,1.2-0.3c0.1-1.2,0.9-2.4,0.5-3.7
			c-0.3-1-1.2-2-0.7-3c0.8-1.7,1.9,0.5,2.5,0c1.6-1.1,2.3-0.3,2.9,1c0.1,0.3,0.5,0.5,0.7,0.5c0.5,0,0.4-0.5,0.5-0.9
			c0.2-0.8-0.5-2.2,0.9-2c1.5,0.2,3.3,0.3,4.5,1.3c2,1.7,4.3,0.6,6.2,0.4c1.2-0.1,1.6,0,2.4,0.7l0.8-1.2
			C86.6,13.1,86.5,11.7,86.8,10.3z M52.9,17.1c-0.8,0.8,0.4-0.5,1-1.3c0,0,0.1,0.1,0.1,0.1C53.7,16.3,53.3,16.7,52.9,17.1z
			 M68.5,13.5c-1.6,0.1-2.6-0.9-4.4-1.8c1.7-0.6,2.9-0.3,4-1.2c0.6-0.6,1.7,0.1,1.8,1.2C70,12.7,69.6,13.4,68.5,13.5z M80.1,10.8
			c-0.6,1.9-1.9,2.3-3.5,0.9c-0.2-0.2-0.7-0.3-1-0.5c-1.5,0.9-2.8,1.3-3-1.2c-0.2-1.4-1.2-1.9-2.5-2.1c-1.7-0.2-3.5-0.4-5.6-0.7
			c1.3-1.9,3.5-2,4.9-2.3c2-0.4,4.5-0.4,6.7,0.6c1.2,0.5,1.4,1.2,1,2.3C80.3,7.2,81,7.9,80.1,10.8z"/>
		<path class="st1" d="M97.6,104.5c0-0.1-0.1-0.1-0.1-0.2c-0.4-0.7-0.6-1.4-0.9-2.1c-0.4-0.2-0.8-0.3-1.3-0.2
			c-1.2,1.4-3.1,0.5-4.5,1.3c-0.8,0.4-0.7-0.4-0.6-1c0.3-2,2.2-0.8,3.2-1.7c-1.4-0.7-2.7-1.2-3.8-1.9c-1.3-0.9-2-0.8-2.3,0.8
			c-0.2,0.9-0.4,1.9-1.9,1c-2.3-1.4-2.9-1.1-3.2,1.6c-0.1,0.5,0.2,1.1-0.4,1.4c-0.5-0.3-0.5-0.7-0.6-1.1c-0.9-2.6-4.5-5.9-7.4-5.9
			c-3.2,0-2.9,4.2-5.8,4c0,0.2,0.1,0.5,0.1,0.7c0.1,0.8,0.2,1.6,0.3,2.4c0,0.5-2.4,3.9-2.9,3.9c-0.3,0-0.6-0.2-0.8-0.4
			c-0.6-0.8-1.3-1.8-2.3-1.1s0.1,1.7,0.2,2.6c0.2,0.7,0.5,1.5,0.8,2.5c0.7,0.4,0.6,1,0.4,1.7c0.3,1.5,0.7,2.9,1,4.3
			c0.6-0.1,1.1-0.2,1.1-1c0-0.4,0.2-1,0.6-0.8c2.9,1.5,4.4-1.9,6.9-2c1.9-0.1,4-1.8,5.4,1.1c0.3,0.7,1.8,0.8,2.8,1.1
			c1.1,0.4,2.3,0.6,2.3,2.2c0.7,0.9,1.4,1.8,2.2,2.5c0.1-0.2,0.1-0.3,0.2-0.4c0.5-0.9,1.5-1.7,2.5-2.1c0-2.5,1-4.9,2.1-7.2
			c0.4-0.7,0.7-1.6,1.6-1.7c1.4-0.2,2.9-0.5,4.4-0.7C96.8,106.8,97,105.5,97.6,104.5C97.6,104.5,97.6,104.5,97.6,104.5z M76,102.6
			c0.2-2-1-2.9-3-3.5c1.7-0.5,3-0.8,3.7,0.1C77.6,100.3,76.5,101.4,76,102.6z"/>
		<path class="st1" d="M93.9,96.2c-2.6-2.1-5.1-4.1-7.7-6.1c-0.7-0.5-1.6-0.8-1.3-1.8c0.3-0.9,1.1-0.5,1.7-0.6
			c1.7-0.2,2.4-1.6,2.9-2.9c0.6-1.4-1-1.5-1.8-2c-2.4-1.7-3.4-4.2-3.7-7c-0.2-2,2.1-2.2,3.1-3.5c0.5-0.7,1.3-0.9,2.4,0
			c0.6,0.5,1.2,1,1.9,1.4c0.1-0.4,0.2-0.9,0.3-1.3c-0.6-0.5-1.2-0.9-1.8-1.4c-2.5-2.1-4.5-2.1-6.4,0.6c-0.8,1-1.4,1.2-2.3,0.3
			c-2.1-2.1-4.8-1.8-7.5-1.9c-1.8,0-3.1,0-4.1,1.8c-0.5,0.9-1.4,0.9-2.3,0.2c-0.7-0.5-1.6-0.6-1.8,0.3c-0.4,1.4-1.4,1.8-2.5,2.4
			c-1.4,0.7-1.7,1.6,0,2.2c1.6,0.6,1.9,1.5,1.1,2.9c0.2,3.6-0.6,7.3,0.3,10.9c2.5,0.1,0.5-2,1.3-2.8c2.4,0.9,4.4-0.7,6.7-0.8
			c3-0.1,6.1-0.6,9,0.6c0.5,0.3,1.4,0.3,0.6,1.2c0,0.1,0,0.3,0.1,0.4c1.6,1.3,3.1,2.7,4.9,3.7s3.3,2.5,5,3.7c1,0.7,1.8,1.2,3,1.3
			C95.2,97,94.3,96.6,93.9,96.2z"/>
		<path class="st1" d="M91.4,146.3c-1.3-0.8-1.8-1.8-1.6-3.2c0.2-1,0.1-2.1,0-3.1c-0.1-1.3,0.4-2.2,1.5-3c0.5-0.3,1-2.7,1.4-3
			c-0.6-0.7-0.9-1.6-1.1-2.4c-0.2-1.6,0.3-3.1,1.4-4.1c-0.2-0.3-0.4-0.6-0.6-0.8c-0.8-1.2-1.3-2.7-1.5-4.1c-1-0.1-1.7,2.6-2.7,2.1
			c-0.8-0.4-1.4-1.1-1.9-1.9c-0.7-0.2-1.4-0.4-2.1-0.6c-0.2,1.6,2.3,0.1,0.2,1.8c-0.6-0.2-0.3-1.3-1.1-1.4c-0.4-0.1-1.3-0.2-0.9,0.4
			c1,1.9-0.1,4,0.7,5.9c-1.6-2.2-2-5-4.6-6.5c-0.7,0.3-0.5,1.5-1.5,2c-1-2.1-1.8-1.8-3.5-0.2c-1.5,1.5-2.9,3.6-5.5,3.6
			c-0.7,0-1.2,0.4-0.9,1.3c0.2,0.4,0.4,0.9-0.3,1.1c-0.4,0.1-0.9-0.1-1-0.5c-0.7-2.1-2.7-1.3-4.1-1.9c-0.9-0.4-1,1-1,1.9
			c3.8,0.2,3.8,0.2,4.4,4c0.1,0.9,0.3,3.9,0.5,4.8c2,1.7,3.2-0.3,3.8-1.4c1.5-2.7,4.2-4.4,6.3-4.3c2.5,0.1,5.6,1,7.5,4
			c0.3,0.6,0.9-2.4,1.4-2.5c0.6-0.2,1.3-0.2,1.7,0.4c0.5,0.8,0.1,3.6-0.2,4.3c-0.4,1.1-0.8-0.1-1.2-0.2c-1-0.3-1.3,0.3-1.1,1
			c0.5,1.9,0.5,3.8,2.5,5.2c1.9,1.2,3.8,2.6,5.6,4c1.5,0.9,3,1.9,4.6,2.7c0.1-0.3,0.3-0.7,0.5-1C95.3,149,93.4,147.6,91.4,146.3z
			 M86.2,127.6c-0.1-0.4,0-0.5,0.2-0.6c0.4-0.2,0.8-0.1,1.1,0.1c0.6,0.4,1.1,0.8,1.6,1.1c0.5,0.3,1.3-0.2,1.7,0.5
			C89.4,129.9,86.8,129.2,86.2,127.6z"/>
		<path class="st1" d="M61.4,50.8c1.5,0.3,2.9,0.6,2.7-1.8c-0.1-1,0.6-1.2,1.4-0.8c0.5,0.2,1,0.3,1.3-0.2s0-0.9-0.3-1.3
			c-0.5-0.6-1.6-1.2-0.6-1.9c0.9-0.6,1.3,0.5,1.7,1.1c0.3,0.5,0.3,1.4,1.2,1.2c0.6-0.2,0.8-0.9,1-1.5c0.9-2.7,2.2-3.1,4.5-1.4
			c0.8-0.7-0.4-2.5,1.7-2.6c2.6-0.1,2.9,0,4.9,3.7c0.7-0.1,0.4-0.8,0.6-1.2c0.6-1.4,1.3-2.7,2.9-3.2c1.7-0.5,2.7,0.7,3.3,1.7
			c0.6,1,2.3,1.1,2,2.6c-4.3-0.4-7,1.4-7.1,4.9c0,2,0.5,3.9,2.4,5.1c0.6,0.4,1.2,0.8,1.7,1.3c0.8,0.8,0.9,2.1,0.6,2.9
			c-0.4,1-1.3,0.2-2-0.1c-0.8-0.4-1.4,0-1.9,0.6c-0.7,0-1.5-0.2-1.3-1c0.5-3-1.7-3-3.5-3.2c-1.4-0.2-2.6-0.6-3.9-1
			c-2.9-0.9-4.4-0.1-5.2,2.9c-0.7,2.4-3.6,3.2-6.1,1.7C63.5,56.3,63,53.4,61.4,50.8z"/>
		<path class="st1" d="M88.4,166.3c-0.4,1.7-2.3,2.8-1.8,4.9c0.1,0.5-0.8,0.4-1.1,0c-0.7-0.7-1.3-1.4-1.2-2.5
			c0.1-1.1,0.3-2.3-1.2-2.8c-0.8-0.3-0.6-0.9-0.3-1.4c0.9-1.4-0.2-2-1.1-2.3c-3-1-6.5-1.9-8.9,0.4c-2.5,2.3-5,1.6-7.6,1.6
			c0.1-1.2,0.2-2.5,0.3-3.7c2.2,0.2,3.6-1.6,5.9-2.6c-3.4-0.2-1.2-2.7-2-4c-0.3-0.4,0.5-0.8,0.9-0.4c1.4,1.1,1.8,0.1,2.4-1
			c0.9-1.7,1.9-3.2,4.3-2.7c0.8,0.2,1.1-0.7,1.4-1.4c0.3,0,0.5,0.1,0.8,0.1c1,2.3,2,4.6,3,6.8c0.8-2.3,0.4-4.7,1.2-6.9
			c0.9-0.1,1.8-0.2,2.7-0.2c0.3,1.1,0.8,2.2,1.3,3.2c0.6,1.3,1.9,2.2,2,3.7C88.3,159,88,162.6,88.4,166.3z"/>
		<path class="st1" d="M90.5,188c0.1-1.4,0.1-2.8,0.1-4.2c0-0.9,0.1-1.6,1-1.9c-0.1-1,0.1-2.1,0.7-3c-1.3-0.5-2.6-1.2-3.8-2.2
			c-1.2-0.8-2.7-1-4.2-1c-0.1,1.2,0.1,2.3,1.2,2.9c0.3,0.2,1.3-0.6,1,0.6c-0.1,0.6-0.8,0.7-1.4,0.7c-0.6,0-1.2-0.4-1.6-0.9
			c-0.3-0.3-0.6-0.9-1.1-0.3c-0.3,0.4-0.3,1,0.1,1.3c2.2,1.9-0.2,2.2-0.9,3.2c0.1-1.9-1.6-2.9-1.9-4.5c-0.1-0.7-0.7-1.3-1.5-1.3
			c-1.1,0-0.5,1.1-0.8,1.6c-1,1.5,0.9,3.5-1,4.9c-0.2-2.2-0.8-4.2-0.8-6.3c0-0.6,0.3-1.5-0.6-1.6c-0.6-0.1-1.2,0.3-1.6,0.9
			c-1.5,2.4-2.9,4.8-4.4,7.1c-0.4,0.6-0.8,1.1-0.3,1.9c0.6,0.8,1.5,1.3,2.3,0.9c3.6-2,6.4,1.2,9.6,1.6c1.2,0.2,1.3,1.5,1.3,2.6
			c0,0.8,0.1,1.8-1.2,1.6c-0.3,0.2-0.5,0.4-0.8,0.6l-0.1,0.1l-0.1-0.1c-0.3,0.6-1.5,0.8-1,1.8c0.4,0.9,1.1,0.6,1.7,0.1
			c0.7-0.5,1.5-1.4,2.1-0.2c1,2.2,3.1,6.1,4.8,7.6c1.1,0.5,2.3,0.7,3.5,0.3c-1-2-3.7-4.8-4.1-7.5c-0.4-2.6,0.1-4,2.4-4.9
			C88.6,189.1,87.8,187.7,90.5,188z M87.8,183.4c-0.7,0.1-0.9-0.8-0.9-1.4c-0.1-0.8,0.5-1.1,1.1-1.2c0.5,0.2,1.1,0.4,0.9,0.9
			C88.6,182.3,88.6,183.3,87.8,183.4z"/>
		<path class="st0" d="M89.5,155.5c-0.1-1.5-1.4-2.5-2-3.7c-0.5-1.1-1-2.1-1.3-3.2c0-0.1,0-0.2,0-0.2c-2-0.9-2.7-3.4-4.8-4.2
			c-0.6-0.2-0.8-0.7-1.1-1.2c-1.9-2.4-4.1-2.8-6.8-1.3c-1.2,0.7-2.3,1.5-3.9,0.4c-1.1-0.8-2.5-0.4-3.1,1.5c-0.8,2.5-2.5,4.3-4.8,6
			c-0.1-1.5,0.7-2.3,1.3-3c1.9-2,2.3-4.3,2-6.8c0-0.5,0-1,0.5-1.3c2,1.7,3.2-0.3,3.8-1.4c1.6-2.7,4.2-4.4,6.3-4.3
			c2.5,0.1,5.6,0.9,7.5,4c0.4,0.6,0.9-2.4,1.4-2.5c0.7-0.2,1.3,1.7,1.7,2.4c0.5,0.8,0,1.6-0.2,2.3c-0.4,1-0.8-0.1-1.2-0.2
			c-1-0.3-1.3,0.3-1.1,1c0.6,1.8,0.5,3.8,2.5,5.2c1.9,1.3,3.8,2.6,5.6,4c-0.7,1.2-1.8,2.5,0.6,3.2c0.5,0.2,1.4,0.4,1.2,1.2
			c-0.2,0.8-1,1.1-1.6,1.2C91.1,154.4,90.2,154.5,89.5,155.5z"/>
		<path class="st0" d="M84.2,122.2c-0.2,1.6,2.3,0.1,0.2,1.8c-0.6-0.3-0.3-1.3-1.1-1.4c-0.4-0.1-1.3-0.2-0.9,0.4
			c1.1,1.9-0.1,4,0.7,5.9c-1.6-2.1-1.9-5-4.6-6.5c-0.7,0.3-0.5,1.5-1.5,2c-1-2.2-1.9-1.8-3.5-0.2c-1.5,1.5-2.8,3.6-5.5,3.6
			c-0.7,0-1.3,0.4-0.9,1.3c0.2,0.4,0.4,0.9-0.3,1.1c-0.4,0.1-0.9-0.1-1-0.5c-0.7-2.1-2.8-1.2-4.1-1.9c-0.9-0.4-1,1-1,1.9
			c-0.1,0.4-0.2,0.9-0.6,0.9c-2.1-0.1-4,1-6.1,0.6l0,0c1.1-1.6,2.1-3.4,4.1-4.2c0.7-0.3,1.3-0.7,1.3-1.6l0,0c0.5,0.1,1,0.1,1.4,0.2
			c1.7,0.6,3.2,1.1,2.1-1.7c-0.1-0.2,0-0.7,0.2-0.9c0.6-0.7,0.7,1.1,1.7,1.1c2.5,0.2,4-3.3,6.9-1.8c1.9,1,4,0.2,6,0.3
			C79.7,122.8,81.9,120.7,84.2,122.2z"/>
		<path class="st0" d="M77,148.4c-0.8,1-1.7,1-2.6,0.1c-1-1-2.4-0.9-3.5-1.4c-1.1-0.5-5.2,2-5,3.1c0.2,1.5,0.2,1.4-1.1,0.9
			c-1.5-0.6-2.3,0.7-3.1,1.7c1,0.5,2,1.2,2.7,2.2c0.5,0.7,0.7,1.5,0.7,2.3c0.8,1.1,0.3,2.3,0.5,3.5c2.2,0.1,3.6-1.6,5.9-2.6
			c-3.4-0.3-1.1-2.7-2-4c-0.3-0.4,0.5-0.7,0.9-0.4c1.4,1,1.9,0,2.4-1c0.9-1.8,1.9-3.3,4.3-2.7c0.8,0.2,1.1-0.8,1.4-1.4
			C78.2,147.7,77.8,147.2,77,148.4z"/>
		<path class="st1" d="M53.8,15.8c3.3-2.4-0.7-0.4,2.4-3.1c0.8-0.7,0.9-1.6,1-2.4c0.4-2.5,1.9-4.6,2.8-6.8c0.4-0.9,1.3-1.3,2.3-1.5
			c2.6-0.7,5.3-1,7.8-2c1.9-0.9,2.6,1.2,3.8,2.1c-2.3,1-4.8,1.1-7.2,1.5C65,3.8,63.4,4.4,61.9,5c-1.7,0.7-2.4,2.8-2.8,4.3
			c-1.1,3.7-1.7,3.1-4,5.6"/>
		<path class="st0" d="M64.9,116.9c0.6-0.1,1.1-0.2,1.1-1c0-0.4,0.2-1,0.6-0.8c2.9,1.5,4.4-1.9,6.9-2c2-0.1,4-1.8,5.4,1.1
			c0.3,0.7,1.8,0.7,2.8,1.1c1.1,0.4,2.3,0.6,2.3,2.2c-4.3-1.4-8.8-1.2-13.2-0.8c-0.4,0-0.8,0.3-1.2,0.2c-1.8-0.4-3-0.3-2.8,2.1
			c0,0.4-0.2,1-0.8,1.1s-0.8-0.4-1.1-0.8C64.4,118.6,64.3,117.7,64.9,116.9z"/>
		<path class="st0" d="M64.2,122.3c-4.9,2.5-8.6,1.8-12.7,5.3c0.1,0.4,0.1,0.8,0.2,1.2c1.2-0.7,2.7-1,3.6-1.8c1.3-1.2,2.5-1.7,4-1.7
			c0.2-0.6-1-1.4,0.3-1.9c2.6-1.1,3.6-0.7,4.8-2.9C64.3,120.4,64.2,122.3,64.2,122.3z"/>
		<path class="st1" d="M63.1,182.8c1.8,0.2,2.7,1.8,4.2,2.5c0.2,0.1,0.5,0.6,0.5,0.8c-1.1,1.9-0.1,5-3.1,5.8
			c-0.5-2.3-1.9-4.4-0.8-6.9C64.2,184.1,63.3,183.5,63.1,182.8z"/>
		<path class="st0" d="M83.5,148.7c-0.8,2.2-0.4,4.6-1.2,6.9c-1-2.3-2-4.6-3-6.8C80.7,148.3,82.1,148.5,83.5,148.7z"/>
		<path class="st1" d="M54.4,52.5c2.3-0.4,4.2-1.8,6.5-2.1c-1.2-1.3-3.8-1.1-5.7-0.1c-0.3,0.3-0.6,0.5-0.9,0.7
			C54.4,51.5,54.4,52,54.4,52.5z"/>
		<path class="st0" d="M89.2,190.6c-0.7-1.4-1.5-2.9,1.3-2.5C90.6,189.1,90.3,190.1,89.2,190.6z"/>
		<path class="st0" d="M63.4,110.9c0.7,0.4,0.6,1.1,0.4,1.7C63.1,112.2,63.1,111.6,63.4,110.9z"/>
		<path class="st0" d="M53.9,131.1c-0.3,0.5-0.9,0.5-1.3,0.7c-0.1-0.1-0.2-0.2-0.2-0.3C52.8,131,53.4,131,53.9,131.1L53.9,131.1z"/>
		<path class="st0" d="M58.7,69.1c0-0.4,0.2-0.7,0.5-0.9l0,0C59.3,68.5,59.2,68.9,58.7,69.1L58.7,69.1z"/>
		<path class="st0" d="M59.3,68.1c0.2-0.2,0.3-0.3,0.5-0.5l0,0C59.6,67.8,59.4,68,59.3,68.1L59.3,68.1z"/>
		<path class="st1" d="M95.4,98c-0.2,0-0.3,0-0.5,0C95.1,98,95.3,98,95.4,98z"/>
		<path class="st2" d="M92.5,176.7c-0.9-0.9-2.2-1.4-3.4-1.7c-2.6-0.7-4.2-1.8-5.5-4.2c-1.8-3.3-6.5-4.7-9.2-2.8
			c-1.3,1-2.6,1.1-4,0.7c-0.7-0.2-1.6-0.6-1.8,0.3c-0.2,0.8,0.1,2,1.5,1.9c0.9-0.1,1.4,0.2,1.7,1.2c0.6,1.6,2.8,1.9,4.1,0.7
			c1-0.9,1.6-1.3,2.7,0c1,1.1,2.3,2.1,4.1,1.9c0.9-0.1,1.6,0.3,1.6,1.4c1.5-0.1,3,0.1,4.2,1c1.2,0.8,2.5,1.4,3.9,1.9
			c0.2-0.2,0.4-0.5,0.6-0.7c0-0.2,0-0.3,0-0.5C92.8,177.5,92.6,177.1,92.5,176.7z"/>
		<path class="st2" d="M79.8,193.4c-0.4,0.6-1.6,0.8-1,1.8c0.5,0.9,1.1,0.6,1.7,0.1c0,2.2-1.9,6.7-4.2,6c-0.4-0.1-0.8-0.6-1.2-0.1
			c-1.5,1.8-2.6,0.4-3.8-0.4c-0.4-0.3-0.5-1.1-1.3-0.8c-1.2,0.4-1-3.7-1.2-4.3c-0.4-0.8,0.2-1.1,0.9-1.4c2.4-1.1,4.7-2.3,7.4-0.7
			C77.6,194,78.8,193.5,79.8,193.4z"/>
		<path class="st2" d="M80.8,192.7c-0.3,0.2-0.5,0.4-0.8,0.6C80.1,193,80,192.4,80.8,192.7z"/>
		<path class="st2" d="M59.2,68.1c0.2-0.2,0.3-0.3,0.5-0.5c2.2-1.1,3.5-3.2,4.7-5.1c0.5-0.8,0.7-1.5,1.6-1.4c2.7,0.3,5-1.6,7.5-1.3
			c2.7,0.2,5.3,1.1,7.7,2.2c0.2,0.1,0.5,0.6,0.5,0.8c-0.4,2-2.3,2.8-3.4,4.2c-0.6,0.8-1.4,0.7-2.1,0c-1.2-1.1-2-1.3-2.2,0.8
			c-0.2,1.6-1.5,1.8-3,0.4s-3.2-2.8-5-1.4c-2,1.5-4.4,2.1-6.4,3.4c-0.4,0.2-0.8,0.4-1,0c-0.2-0.3,0.1-0.8,0.1-1.2
			C59.2,68.9,59.3,68.5,59.2,68.1z"/>
		<path class="st2" d="M81.8,88.9c0,0.1,0.1,0.3,0.1,0.4c0.1,1.5-0.6,2.3-2.1,2c-2-0.4-3.9,0.8-5.9,0.1c-1-0.3-1.9,0.6-2.4,1.7
			c-0.4,0.8-0.8,1.6-1.7,1.9c-2.1,0.7-4.5,0.4-6.5,2.5c0.3-2.6,1.6-4,2.6-5.6c1-1.4,2.2-2.5,4.1-2.1c2.2,0.4,4-1.1,6.3-1.1
			C78.2,88.8,80,88.6,81.8,88.9z"/>
		<path class="st2" d="M81.9,33.4c0.8,0.7,1.3,1.7,2.5,1.9c-0.3,0.2-0.6,0.5-0.8,0.4c-2.6-1.5-4.3,0.7-5.3,2.1
			c-1.5,2.2-2.8,0.9-4,0.3c-1.2-0.7-2-1.4-2.1,0.7c-0.1,2-1.3,1.6-2.2,0.8c-1-0.9-1.7-2.1-3.1-3.1c0.7,3.3-1.5,2.6-2.8,3
			c-1,0.3-1.1-0.3-1.1-1c-0.1-0.7-0.2-1.4-0.2-2.1c-0.1-0.1,0-0.3,0.1-0.4c0.7,0.5,1,0.2,1.2-0.5s0.5-1.4,1.2-1.6
			c2.8-0.8,5.4-2.1,8.4-2.2C76.7,31.4,79.2,32.9,81.9,33.4z"/>
		<path class="st0" d="M81.9,33.4c-2.8-0.4-5.2-2-8.2-1.9c-3,0.2-5.6,1.4-8.4,2.2c-0.8,0.2-1,1-1.2,1.6c-0.2,0.7-0.5,1-1.2,0.5
			c0.5-1.4,0.7-3,2.6-3.5c1.2-0.3,2.5-0.5,1.4-2.5c-0.6-1,1-1.6,2-1.7c2.3-0.3,4.6,0.1,6.9-0.5c0.6-0.1,1.5,0.1,1.5,0.8
			c0.1,1.1-1.5,0.7-1.9,1.8C78,30.4,80.4,31.1,81.9,33.4z"/>
		<path class="st2" d="M75.6,11.2c-1.5,0.9-2.8,1.3-3-1.2c-0.1-1.4-1.2-2-2.5-2.1c-1.8-0.3-3.5-0.5-5.6-0.7c1.3-1.9,3.5-2,4.9-2.3
			c2-0.4,4.5-0.4,6.7,0.6c1.2,0.6,1.4,1.2,1,2.3C76.1,8.7,74.4,9.4,75.6,11.2z"/>
		<path class="st1" d="M75.6,11.2c-1.1-1.9,0.5-2.5,1.5-3.4c3.3-0.6,4,0.1,3,3c-0.6,1.9-1.9,2.3-3.5,0.9
			C76.3,11.5,75.9,11.4,75.6,11.2z"/>
		<path class="st2" d="M64.1,11.7c1.7-0.7,2.9-0.4,3.9-1.2c0.6-0.5,1.7,0.2,1.8,1.2s-0.3,1.7-1.4,1.8C66.9,13.7,65.8,12.7,64.1,11.7
			z"/>
		<path class="st0" d="M76,102.6c0.3-2-0.9-2.8-3-3.5c1.7-0.6,3-0.9,3.7,0.1C77.5,100.3,76.5,101.4,76,102.6z"/>
		<path class="st0" d="M90.8,128.7c-1.4,1.2-4.1,0.5-4.6-1.1c-0.1-0.3,0-0.5,0.2-0.6c0.4-0.3,0.8-0.2,1.1,0.1c0.5,0.4,1,0.7,1.6,1.1
			C89.6,128.6,90.4,128,90.8,128.7z"/>
		<path class="st0" d="M88,180.8c0.6,0.2,1.1,0.3,0.8,0.9c-0.3,0.6-0.3,1.6-1.1,1.7c-0.7,0.1-0.9-0.8-0.9-1.4
			C86.8,181.3,87.3,180.9,88,180.8z"/>
		<path class="st3" d="M125.3,89.8c0.1,0,0.1,0.1,0.2,0.1C125.4,89.9,125.4,89.9,125.3,89.8L125.3,89.8z"/>
	</g>
</g>
</svg>
