<?xml version="1.0" encoding="utf-8"?>
<!-- Generator: Adobe Illustrator 21.0.0, SVG Export Plug-In . SVG Version: 6.00 Build 0)  -->
<svg version="1.1" id="Layer_1" xmlns="http://www.w3.org/2000/svg" xmlns:xlink="http://www.w3.org/1999/xlink" x="0px" y="0px"
	 viewBox="0 0 143.6 206.4" style="enable-background:new 0 0 143.6 206.4;" xml:space="preserve">
<style type="text/css">
	.st0{fill:#CEC7B6;}
	.st1{fill:#948B7D;}
	.st2{fill:#FFFFFF;}
	.st3{display:none;fill:#948B7D;}
</style>
<g id="Laag_6">
	<g>
		<path class="st0" d="M70.1,163.4c0.8,0.3,1.5,0.3,2.3-0.7c1.5-1.9,4.2-0.6,5.3,2.8c0.7,2.4,1.7,3.5,3.2,4.2
			c0.6,0.3,1.3,0.8,1.8,1.6c-0.1-0.4-0.1-0.7-0.1-1.1c0-0.1,0-0.2,0-0.3c-0.1,0-0.1-0.1-0.1-0.2c-1.3-1.4-2-3.2-1.8-5.9
			c0.1-1,0.3-2.2-0.3-2.9c-0.2,1.7-1.3,2.8-0.9,5.2c0.1,0.4-0.4,0.3-0.6,0c-0.5-0.7-0.7-1.4-0.7-2.5c0.1-1.2,0.1-2.3-0.7-2.8
			c-0.5-0.3-0.3-0.9-0.2-1.4c0.5-1.4-0.1-2-0.6-2.3c-1.7-1-3.7-1.9-5.1,0.4c-1.4,2.3-2.9,1.6-4.4,1.6c-0.2,1.9-0.4,3.9-0.3,5.9
			c0.1,1.8-0.1,3.9-1,5.2c-0.1,0.2-0.2,0.3-0.3,0.5c-0.2,1.7-0.5,3.3-0.9,5c-0.1,0.2-0.1,0.4-0.1,0.6c0.1,0.7,0.1,1.3,0.1,2
			c0.4-0.3,0.8-0.6,1.3-0.7c1.1,0.1,1.6,1.8,2.4,2.5c0.2,0.2,0.3,0.7,0.3,0.8c-0.6,1.9,0,5-1.8,5.8c-0.1,0.3-0.2,0.7-0.2,0.9
			c0.7,2.5-0.1,7.2-1,8.8c-0.2,0.4-0.5,0.8-0.3,1.5c3.6,0,7.2,0.1,10.9,0c1.2,0,2.5,0.5,3.7-0.3c-1-1.4-2.2-5.4-2.8-7.6
			c-0.3-1.2-0.8-0.3-1.2,0.2c0,2.2-1.1,6.6-2.4,6c-0.2-0.1-0.5-0.6-0.7-0.1c-0.9,1.8-1.5,0.4-2.2-0.4c-0.2-0.3-0.3-1.1-0.7-0.8
			c-0.7,0.4-0.6-0.8-0.7-1.3c-0.2-0.8,0.2-4.1,0.5-4.4c1.4-1.1,2.7-2.3,4.2-0.7c0.4,0.4,1.1-0.1,1.6-0.2l0.1,0.1l0.1-0.1
			c0.1-0.4,0.1-1,0.5-0.6c0.8,0.1,0.7-0.8,0.7-1.6c0-1.1-0.1-2.5-0.7-2.6c-1.8-0.4-3.4-3.6-5.5-1.6c-0.5,0.4-1-0.1-1.3-0.9
			c-0.3-0.7-0.1-1.3,0.2-1.9c0.9-2.4,1.7-4.7,2.5-7.1c0.2-0.6,0.6-1,0.9-0.9c0.5,0.1,0.3,1,0.3,1.6c-0.1,2.1,0.3,4.1,0.5,6.3
			c1.1-1.4,0-3.4,0.6-4.9c0.2-0.5-0.2-1.6,0.5-1.6c0.5-0.1,0.7,0.6,0.9,1.3c0.2,1.6,1.1,2.6,1.1,4.5c0.4-1,1.8-1.3,0.5-3.2
			c-0.2-0.3-0.2-0.9-0.1-1.3c0.3-0.6,0.5,0,0.6,0.3c0.2,0.5,0.5,0.9,0.9,0.9c0.3,0,0.7-0.1,0.8-0.7c0.2-1.2-0.3-0.4-0.6-0.6
			c-0.6-0.7-0.7-1.8-0.7-2.9c0-1.1-0.4-1.5-0.9-1.4c-1,0.3-1.8-0.8-2.4-1.9c-0.6-1.3-1-0.9-1.6,0c-0.8,1.2-2,0.9-2.4-0.7
			c-0.2-1-0.5-1.2-1-1.2c-0.8,0.1-1-1-0.9-1.9C69.2,162.8,69.7,163.2,70.1,163.4z"/>
		<path class="st0" d="M83.2,63.7c-1-1.1-2.1-2.2-3.2-3.3c-1.4-1.3-2.4-3-2.7-5.8c-0.4,0-0.8-0.2-0.7-1c0.3-2.9-1-3-2-3.2
			c-0.8-0.2-1.5-0.6-2.2-1c-1.7-0.9-2.5-0.1-3,2.9c-0.3,2.4-2.1,3.2-3.5,1.7c-0.2,3.1-1.3,5.6-2,8.3c1.3-1.1,2-3.2,2.5-5.1
			c0.3-0.8,0.4-1.5,0.9-1.4c1.6,0.4,2.9-1.5,4.3-1.3c1.5,0.2,3,1.1,4.4,2.2c0.1,0.1,0.3,0.6,0.3,0.8c-0.2,1.9-1.3,2.8-2,4.2
			c-0.3,0.7-0.8,0.7-1.2,0c-0.7-1.1-1.1-1.3-1.3,0.8c-0.1,1.6-0.9,1.8-1.7,0.4c-0.8-1.4-1.8-2.8-2.9-1.4c-1.1,1.5-2.5,2.1-3.7,3.4
			c-0.2,0.2-0.3,0.3-0.5,0.1c-0.1,3.1-0.6,6.3-1.6,9.2c1.5-1.4,3-2.4,4.5,0.2c0.5-1.4,0.3-2.3-0.6-2.9c-1-0.6-0.8-1.4,0-2.2
			c0.6-0.6,1.2-1,1.4-2.4c0.2-0.9,0.6-0.8,1-0.3c0.5,0.7,1,0.7,1.3-0.2c0.5-1.8,1.3-1.8,2.4-1.8c1.6,0.1,3.1-0.2,4.3,1.9
			c0.5,0.9,0.9,0.8,1.3-0.3c1.1-2.7,2.2-2.7,3.7-0.6c0.4,0.6,0.8,1.2,1.3,1.8C82.3,66.1,82.7,64.9,83.2,63.7z"/>
		<path class="st0" d="M84.6,93.7c0-0.3-0.1-0.5-0.1-0.8c-0.1,0-0.1,0-0.2,0h-0.3c-0.6-0.1-1.1-0.6-1.7-1.3
			c-0.9-1.2-1.8-2.7-2.9-3.7s-1.9-2.4-2.8-3.7c0.1,1.6-0.3,2.3-1.2,2c-1.1-0.4-2.2,0.7-3.4,0.1C71.5,86,71,86.9,70.7,88
			c-0.2,0.8-0.5,1.6-1,1.9c-1.2,0.7-2.6,0.4-3.7,2.5c0.2-2.6,0.9-4.1,1.5-5.6c0.5-1.4,1.3-2.4,2.4-2.1c1.3,0.3,2.4-1.2,3.6-1.1
			c1,0,2.1-0.2,3.1,0.1c0.5-1-0.1-1-0.3-1.2c-1.7-1.2-3.4-0.7-5.2-0.6c-1.3,0.1-2.5,1.7-3.8,0.8c-0.4,0.8,0.7,2.9-0.7,2.8
			c-0.6,3-1.8,5.2-3.2,7c-0.2,0.2-0.3,0.4-0.5,0.6c-0.1,1.7-0.2,3.3-0.4,5c0.4,0,0.3,0.6,0.2,1.4c0.1,0.7,0.4,1.2,0.3,1.9
			c0.9,0.5,1.6,1.7,2.5,1.9c-0.1-0.9-0.7-1.9-0.1-2.6s1,0.3,1.3,1.1c0.1,0.2,0.3,0.4,0.5,0.4c0.3,0.1,1.7-3.4,1.7-3.9
			c-0.1-0.8-0.1-1.6-0.2-2.4c0-0.2-0.1-0.5-0.1-0.7c1.7,0.2,1.5-4,3.3-4c1.7-0.1,3.7,3.3,4.2,5.9c0.1,0.4,0.1,0.8,0.3,1.1
			c0.3-0.3,0.2-0.9,0.2-1.4c0.2-2.6,0.5-3,1.8-1.6c0.9,1,1-0.1,1.1-1c0.2-1.6,0.6-1.7,1.3-0.8c0.6,0.7,1.4,1.2,2.2,1.9
			c-0.6,0.9-1.7-0.2-1.8,1.7c-0.1,0.6-0.1,1.4,0.3,1c0.9-0.7,1.9,0.1,2.6-1.3c0-0.5-0.1-1.1,0.2-1.3c0.1-0.1,0.2-0.1,0.3-0.1
			C84.7,94.8,84.7,94.2,84.6,93.7z"/>
		<path class="st0" d="M81.2,33.3L80.9,33c-0.2-0.2-0.3-0.4-0.4-0.6c0-0.1-0.2-0.4-0.6-1.2C79,32,78.8,29.9,78,30.1
			c-0.2,0.1-0.4,0.5-0.5,0.4c-1.5-1.5-2.5,0.7-3,2.1c-0.9,2.2-1.6,0.9-2.3,0.3c-0.7-0.7-1.1-1.4-1.2,0.7c-0.1,2-0.7,1.7-1.3,0.8
			c-0.6-0.9-1-2.1-1.8-3.1c0.4,3.3-0.9,2.6-1.6,3c-0.6,0.3-0.6-0.3-0.6-1c0-0.7-0.1-1.4-0.1-2.1c-1.1,1.5-1.9,3.8-2.9,5.5
			c-0.3,0.6-0.7,1.2-1.1,1.7c0.3,0.8,0.5,1.8,0.6,2.9c0.1,1.4-0.3,2.8-1,3.7c1.1-1.1,2.6-1.2,3.3,0.4c-0.1,0.4,0.1,0.5,0.2,0.5
			c0.9,0.3,1.7,0.6,1.6-1.8c-0.1-1,0.3-1.1,0.8-0.8c0.3,0.2,0.6,0.3,0.7-0.2c0.2-0.5,0-0.9-0.2-1.3c-0.3-0.6-0.9-1.2-0.3-1.9
			c0.5-0.6,0.7,0.4,1,1.1c0.2,0.5,0.2,1.4,0.7,1.2c0.3-0.2,0.5-0.9,0.6-1.5c0.5-2.7,1.3-3.1,2.6-1.4c0.5-0.7-0.2-2.5,1-2.6
			c1.6-0.1,1.7,0,2.8,3.7c0.4-0.2,0.2-0.8,0.3-1.2c0.3-1.4,0.7-2.7,1.7-3.2c0.7-0.5,1.3,0.2,1.6,0.9v-0.5c-0.1-0.5-0.1-1.2-0.3-1.5
			c-0.5-0.7-0.4-1.4,0-2c0.5-0.6,0.7,0.3,1,0.6c0.7,0.6,0.7,2.7,1.7,2.8C81.6,35.4,81.5,34.3,81.2,33.3z"/>
		<path class="st0" d="M80.9,39.7c-0.1-1-0.9-1.3-1.1-2c-0.1-0.2-0.2-0.5-0.3-0.8V37C77.8,34.5,79.8,37.7,80.9,39.7z"/>
		<path class="st1" d="M77.5,28.6c-0.3-0.3-0.7-0.4-0.7-1.2s0.5-1,0.8-1.1c1.2-0.4,1-1.4,0.3-2.5c-1.3-2.1-1.3-5-1.6-7.7
			c-0.2-1.9,1.1-2,1.7-2.8c0.3-0.4,0.5-0.4,0.7-0.3c0.2-0.5,0.3-1,0.6-1.4c-0.1-0.3-0.2-0.7-0.4-1c-0.5-0.8-0.7-0.8-1.4-0.7
			c-1.1,0.2-2.4,1.3-3.6-0.4c-0.7-1-1.7-1.1-2.6-1.3c-0.8-0.2-0.4,1.3-0.5,2c-0.1,0.3,0,0.8-0.3,0.9c-0.1,0-0.3-0.3-0.4-0.5
			c-0.4-1.3-0.7-2.1-1.7-1c-0.3,0.4-1-1.7-1.4,0c-0.3,1.1,0.2,2,0.4,3c0.2,1.3-0.2,2.4-0.3,3.7c0,0.5-0.5,0.9-0.7,0.3
			c-0.3-1.2-1.1-2.2-0.7-3.7c0.4-1.6-0.1-2.5-0.9-3.8c0.1,1.5-0.2,2.1-0.8,2.6c-0.9,0.7-1.2,1.7-0.6,3.6c0.4,1.1,1.6,2.3,0.9,3.6
			c-0.5,1.2-1.1-0.9-1.8-1.1c-0.7-0.3-1.4-0.2-2.2-0.3c0.6,1.5,1.6,2,2.5,2.8c0.8,0.7,1,1.5,0.8,3c-0.2,1.4-0.4,2.9,0.3,4.2
			c0.8,1.5,0.6,4-0.3,5.5c-0.3,0.5-0.6,0.8-1,1.3c-0.4,0.6-0.8,1.2-1.3,1.8c0,0.7,0,1.3-0.1,2l0.1,0.1c0.4-0.6,0.8-1.2,1.1-1.8
			c1.1-1.7,1.8-4,2.9-5.5c0-0.2,0-0.3,0.1-0.4c0.3-1.4,0.4-3,1.5-3.5c0.7-0.3,1.5-0.5,0.8-2.5c-0.3-1,0.6-1.6,1.1-1.7
			c1.3-0.3,2.6,0.1,4-0.5c0.3-0.2,0.9,0.1,0.9,0.8c0.1,1.1-0.8,0.7-1.1,1.8c1.6,0.1,2.9,0.8,3.8,3.1c0.5,0.7,0.8,1.7,1.4,1.9
			c0.7-0.2,1,1.9,1.8,1.1C79.4,29.4,78.4,29.2,77.5,28.6z"/>
		<path class="st0" d="M79.4,4.9V4.8c-0.7-1.1-1.4-2.4-1.3-2.9c-2-1.9-4.2-3.2-6-5.5c-1.3,1.1-2.8,1.1-4.1,1.5
			c-1,0.3-1.9,0.8-2.8,1.4c-1,0.6-1.4,2.8-1.6,4.3c-0.4,2.6-1.4,4.3-2.4,5.9l0,0C61,9.7,60.8,9.9,60.7,10c0.1-0.2,0.1-0.3-0.2,0
			c-0.1,0.1-0.1,0.2-0.1,0.2c-1.3,1.5-2.4,3.7-2.1,6.5c0.1,1,0.2,1.3,0.7,0.6c0.2-0.3,0.5-0.7,0.8-0.9c1.6-1.2-1.2,1.1,0.6,0.7
			c0.7,0.1,1.4,0,2.2,0.3c0.7,0.2,1.3,2.3,1.8,1.1c0.6-1.3-0.6-2.4-0.9-3.6c-0.6-1.8-0.3-2.9,0.6-3.6c0.6-0.5,0.9-1.2,0.8-2.6
			c0.7,1.3,1.3,2.2,0.9,3.8c-0.3,1.6,0.5,2.5,0.7,3.7c0.2,0.7,0.6,0.3,0.7-0.3c0.1-1.2,0.5-2.4,0.3-3.7c-0.2-1-0.7-2-0.4-3
			c0.5-1.7,1.1,0.5,1.4,0c0.9-1.1,1.3-0.3,1.7,1c0.1,0.3,0.3,0.5,0.4,0.5c0.3,0,0.2-0.5,0.3-0.9c0.1-0.8-0.3-2.2,0.5-2
			c0.9,0.2,1.9,0.3,2.6,1.3c1.1,1.7,2.5,0.6,3.6,0.4c0.7-0.1,0.9,0,1.4,0.7L79.6,9C79.3,7.7,79.2,6.3,79.4,4.9z M59.9,11.7
			c-0.5,0.8,0.2-0.5,0.6-1.3l0.1,0.1C60.4,10.9,60.2,11.3,59.9,11.7z M68.9,8.1c-0.9,0.1-1.5-0.9-2.5-1.8c1-0.6,1.7-0.3,2.3-1.2
			c0.3-0.6,1,0.1,1,1.2C69.7,7.3,69.5,8,68.9,8.1z M75.5,5.4c-0.3,1.9-1.1,2.3-2,0.9C73.4,6.1,73.1,6,73,5.8
			c-0.9,0.9-1.6,1.3-1.7-1.2c-0.1-1.4-0.7-1.9-1.4-2.1c-1-0.2-2-0.4-3.2-0.7c0.7-1.9,2-2,2.8-2.3c1.1-0.4,2.6-0.4,3.8,0.6
			c0.7,0.5,0.8,1.2,0.6,2.3C75.7,1.8,76.1,2.5,75.5,5.4z"/>
		<path class="st1" d="M85.6,99.1c0-0.1-0.1-0.1-0.1-0.2c-0.2-0.7-0.3-1.4-0.5-2.1c-0.2-0.2-0.5-0.3-0.7-0.2
			c-0.7,1.4-1.8,0.5-2.6,1.3c-0.5,0.4-0.4-0.4-0.3-1c0.2-2,1.3-0.8,1.8-1.7c-0.8-0.7-1.6-1.2-2.2-1.9c-0.7-0.9-1.1-0.8-1.3,0.8
			c-0.1,0.9-0.2,1.9-1.1,1c-1.3-1.4-1.7-1.1-1.8,1.6c-0.1,0.5,0.1,1.1-0.2,1.4c-0.3-0.3-0.3-0.7-0.3-1.1c-0.5-2.6-2.6-5.9-4.2-5.9
			c-1.8,0-1.7,4.2-3.3,4c0,0.2,0.1,0.5,0.1,0.7c0.1,0.8,0.1,1.6,0.2,2.4c0,0.5-1.4,3.9-1.7,3.9c-0.2,0-0.3-0.2-0.5-0.4
			c-0.3-0.8-0.7-1.8-1.3-1.1c-0.6,0.7,0.1,1.7,0.1,2.6c0.1,0.7,0.3,1.5,0.5,2.5c0.4,0.4,0.3,1,0.2,1.7c0.2,1.5,0.4,2.9,0.6,4.3
			c0.3-0.1,0.6-0.2,0.6-1c0-0.4,0.1-1,0.3-0.8c1.7,1.5,2.5-1.9,4-2c1.1-0.1,2.3-1.8,3.1,1.1c0.2,0.7,1,0.8,1.6,1.1
			c0.6,0.4,1.3,0.6,1.3,2.2c0.4,0.9,0.8,1.8,1.3,2.5c0.1-0.2,0.1-0.3,0.1-0.4c0.3-0.9,0.9-1.7,1.4-2.1c0-2.5,0.6-4.9,1.2-7.2
			c0.2-0.7,0.4-1.6,0.9-1.7c0.8-0.2,1.7-0.5,2.5-0.7C85.1,101.4,85.2,100.1,85.6,99.1L85.6,99.1z M73.2,97.2c0.1-2-0.6-2.9-1.7-3.5
			c1-0.5,1.7-0.8,2.1,0.1C74.1,94.9,73.5,96,73.2,97.2z"/>
		<path class="st1" d="M83.5,90.8c-1.5-2.1-2.9-4.1-4.4-6.1c-0.4-0.5-0.9-0.8-0.7-1.8c0.2-0.9,0.6-0.5,1-0.6c1-0.2,1.4-1.6,1.7-2.9
			c0.3-1.4-0.6-1.5-1-2c-1.4-1.7-2-4.2-2.1-7c-0.1-2,1.2-2.2,1.8-3.5c0.3-0.7,0.7-0.9,1.4,0c0.3,0.5,0.7,1,1.1,1.4
			c0.1-0.4,0.1-0.9,0.2-1.3c-0.3-0.5-0.7-0.9-1-1.4c-1.4-2.1-2.6-2.1-3.7,0.6c-0.5,1-0.8,1.2-1.3,0.3c-1.2-2.1-2.8-1.8-4.3-1.9
			c-1,0-1.8,0-2.4,1.8c-0.3,0.9-0.8,0.9-1.3,0.2c-0.4-0.5-0.9-0.6-1,0.3c-0.2,1.4-0.8,1.8-1.4,2.4c-0.8,0.7-1,1.6,0,2.2
			c0.9,0.6,1.1,1.5,0.6,2.9c0.1,3.6-0.3,7.3,0.2,10.9c1.4,0.1,0.3-2,0.7-2.8c1.4,0.9,2.5-0.7,3.8-0.8c1.7-0.1,3.5-0.6,5.2,0.6
			c0.3,0.3,0.8,0.3,0.3,1.2c0,0.1,0,0.3,0.1,0.4c0.9,1.3,1.8,2.7,2.8,3.7c1,1,1.9,2.5,2.9,3.7c0.6,0.7,1,1.2,1.7,1.3
			C84.2,91.6,83.7,91.2,83.5,90.8z"/>
		<path class="st1" d="M82,140.9c-0.7-0.8-1-1.8-0.9-3.2c0.1-1,0.1-2.1,0-3.1c-0.1-1.3,0.2-2.2,0.9-3c0.3-0.3,0.6-2.7,0.8-3
			c-0.3-0.7-0.5-1.6-0.6-2.4c-0.1-1.6,0.2-3.1,0.8-4.1c-0.1-0.3-0.2-0.6-0.3-0.8c-0.5-1.2-0.7-2.7-0.9-4.1c-0.6-0.1-1,2.6-1.6,2.1
			c-0.5-0.4-0.8-1.1-1.1-1.9c-0.4-0.2-0.8-0.4-1.2-0.6c-0.1,1.6,1.3,0.1,0.1,1.8c-0.3-0.2-0.2-1.3-0.6-1.4c-0.2-0.1-0.7-0.2-0.5,0.4
			c0.6,1.9-0.1,4,0.4,5.9c-0.9-2.2-1.1-5-2.6-6.5c-0.4,0.3-0.3,1.5-0.9,2c-0.6-2.1-1-1.8-2-0.2c-0.9,1.5-1.7,3.6-3.2,3.6
			c-0.4,0-0.7,0.4-0.5,1.3c0.1,0.4,0.2,0.9-0.2,1.1c-0.2,0.1-0.5-0.1-0.6-0.5c-0.4-2.1-1.6-1.3-2.4-1.9c-0.5-0.4-0.6,1-0.6,1.9
			c2.2,0.2,2.2,0.2,2.5,4c0.1,0.9,0.2,3.9,0.3,4.8c1.1,1.7,1.8-0.3,2.2-1.4c0.9-2.7,2.4-4.4,3.6-4.3c1.4,0.1,3.2,1,4.3,4
			c0.2,0.6,0.5-2.4,0.8-2.5c0.3-0.2,0.7-0.2,1,0.4c0.3,0.8,0.1,3.6-0.1,4.3c-0.2,1.1-0.5-0.1-0.7-0.2c-0.6-0.3-0.7,0.3-0.6,1
			c0.3,1.9,0.3,3.8,1.4,5.2c1.1,1.2,2.2,2.6,3.2,4c0.9,0.9,1.7,1.9,2.6,2.7c0.1-0.3,0.2-0.7,0.3-1C84.3,143.6,83.2,142.2,82,140.9z
			 M79,122.2c-0.1-0.4,0-0.5,0.1-0.6c0.2-0.2,0.5-0.1,0.6,0.1c0.3,0.4,0.6,0.8,0.9,1.1c0.3,0.3,0.7-0.2,1,0.5
			C80.9,124.5,79.4,123.8,79,122.2z"/>
		<path class="st1" d="M64.8,45.4c0.9,0.3,1.7,0.6,1.6-1.8c-0.1-1,0.3-1.2,0.8-0.8c0.3,0.2,0.6,0.3,0.7-0.2s0-0.9-0.2-1.3
			c-0.3-0.6-0.9-1.2-0.3-1.9c0.5-0.6,0.7,0.5,1,1.1c0.2,0.5,0.2,1.4,0.7,1.2c0.3-0.2,0.5-0.9,0.6-1.5c0.5-2.7,1.3-3.1,2.6-1.4
			c0.5-0.7-0.2-2.5,1-2.6c1.5-0.1,1.7,0,2.8,3.7c0.4-0.1,0.2-0.8,0.3-1.2c0.3-1.4,0.7-2.7,1.7-3.2c1-0.5,1.6,0.7,1.9,1.7
			s1.3,1.1,1.1,2.6c-2.5-0.4-4,1.4-4.1,4.9c0,2,0.3,3.9,1.4,5.1c0.3,0.4,0.7,0.8,1,1.3c0.5,0.8,0.5,2.1,0.3,2.9
			c-0.2,1-0.7,0.2-1.1-0.1c-0.5-0.4-0.8,0-1.1,0.6c-0.4,0-0.9-0.2-0.7-1c0.3-3-1-3-2-3.2c-0.8-0.2-1.5-0.6-2.2-1
			c-1.7-0.9-2.5-0.1-3,2.9c-0.4,2.4-2.1,3.2-3.5,1.7C66,50.9,65.7,48,64.8,45.4z"/>
		<path class="st1" d="M80.3,160.9c-0.2,1.7-1.3,2.8-1,4.9c0.1,0.5-0.5,0.4-0.6,0c-0.4-0.7-0.7-1.4-0.7-2.5s0.2-2.3-0.7-2.8
			c-0.5-0.3-0.3-0.9-0.2-1.4c0.5-1.4-0.1-2-0.6-2.3c-1.7-1-3.7-1.9-5.1,0.4c-1.4,2.3-2.9,1.6-4.4,1.6c0.1-1.2,0.1-2.5,0.2-3.7
			c1.3,0.2,2.1-1.6,3.4-2.6c-2-0.2-0.7-2.7-1.1-4c-0.2-0.4,0.3-0.8,0.5-0.4c0.8,1.1,1,0.1,1.4-1c0.5-1.7,1.1-3.2,2.5-2.7
			c0.5,0.2,0.6-0.7,0.8-1.4c0.2,0,0.3,0.1,0.5,0.1c0.6,2.3,1.1,4.6,1.7,6.8c0.5-2.3,0.2-4.7,0.7-6.9c0.5-0.1,1-0.2,1.6-0.2
			c0.2,1.1,0.5,2.2,0.7,3.2c0.3,1.3,1.1,2.2,1.1,3.7C80.3,153.6,80.1,157.2,80.3,160.9z"/>
		<path class="st1" d="M81.5,182.6c0.1-1.4,0.1-2.8,0.1-4.2c0-0.9,0.1-1.6,0.6-1.9c-0.1-1,0.1-2.1,0.4-3c-0.7-0.5-1.5-1.2-2.2-2.2
			c-0.7-0.8-1.6-1-2.4-1c-0.1,1.2,0.1,2.3,0.7,2.9c0.2,0.2,0.7-0.6,0.6,0.6c-0.1,0.6-0.5,0.7-0.8,0.7s-0.7-0.4-0.9-0.9
			c-0.2-0.3-0.3-0.9-0.6-0.3c-0.2,0.4-0.2,1,0.1,1.3c1.3,1.9-0.1,2.2-0.5,3.2c0.1-1.9-0.9-2.9-1.1-4.5c-0.1-0.7-0.4-1.3-0.9-1.3
			c-0.6,0-0.3,1.1-0.5,1.6c-0.6,1.5,0.5,3.5-0.6,4.9c-0.1-2.2-0.5-4.2-0.5-6.3c0-0.6,0.2-1.5-0.3-1.6c-0.3-0.1-0.7,0.3-0.9,0.9
			c-0.9,2.4-1.7,4.8-2.5,7.1c-0.2,0.6-0.5,1.1-0.2,1.9c0.3,0.8,0.9,1.3,1.3,0.9c2.1-2,3.7,1.2,5.5,1.6c0.7,0.2,0.7,1.5,0.7,2.6
			c0,0.8,0.1,1.8-0.7,1.6c-0.2,0.2-0.3,0.4-0.5,0.6l-0.1,0.1l-0.1-0.1c-0.2,0.6-0.9,0.8-0.6,1.8c0.2,0.9,0.6,0.6,1,0.1
			c0.4-0.5,0.9-1.4,1.2-0.2c0.6,2.2,1.8,6.1,2.8,7.6c0.6,0.5,1.3,0.7,2,0.3c-0.6-2-2.1-4.8-2.4-7.5c-0.2-2.6,0.1-4,1.4-4.9
			C80.4,183.7,80,182.3,81.5,182.6z M80,178c-0.4,0.1-0.5-0.8-0.5-1.4c-0.1-0.8,0.3-1.1,0.6-1.2c0.3,0.2,0.6,0.4,0.5,0.9
			C80.4,176.9,80.4,177.9,80,178z"/>
		<path class="st0" d="M80.9,150.1c-0.1-1.5-0.8-2.5-1.1-3.7c-0.3-1.1-0.6-2.1-0.7-3.2c0-0.1,0-0.2,0-0.2c-1.1-0.9-1.6-3.4-2.8-4.2
			c-0.3-0.2-0.5-0.7-0.6-1.2c-1.1-2.4-2.4-2.8-3.9-1.3c-0.7,0.7-1.3,1.5-2.2,0.4c-0.6-0.8-1.4-0.4-1.8,1.5c-0.5,2.5-1.4,4.3-2.8,6
			c-0.1-1.5,0.4-2.3,0.7-3c1.1-2,1.3-4.3,1.1-6.8c0-0.5,0-1,0.3-1.3c1.1,1.7,1.8-0.3,2.2-1.4c0.9-2.7,2.4-4.4,3.6-4.3
			c1.4,0.1,3.2,0.9,4.3,4c0.2,0.6,0.5-2.4,0.8-2.5c0.4-0.2,0.7,1.7,1,2.4c0.3,0.8,0,1.6-0.1,2.3c-0.2,1-0.5-0.1-0.7-0.2
			c-0.6-0.3-0.7,0.3-0.6,1c0.3,1.8,0.3,3.8,1.4,5.2c1.1,1.3,2.2,2.6,3.2,4c-0.4,1.2-1,2.5,0.3,3.2c0.3,0.2,0.8,0.4,0.7,1.2
			c-0.1,0.8-0.6,1.1-0.9,1.2C81.9,149,81.3,149.1,80.9,150.1z"/>
		<path class="st0" d="M77.9,116.8c-0.1,1.6,1.3,0.1,0.1,1.8c-0.3-0.3-0.2-1.3-0.6-1.4c-0.2-0.1-0.7-0.2-0.5,0.4
			c0.6,1.9-0.1,4,0.4,5.9c-0.9-2.1-1.1-5-2.6-6.5c-0.4,0.3-0.3,1.5-0.9,2c-0.6-2.2-1.1-1.8-2-0.2c-0.9,1.5-1.6,3.6-3.2,3.6
			c-0.4,0-0.7,0.4-0.5,1.3c0.1,0.4,0.2,0.9-0.2,1.1c-0.2,0.1-0.5-0.1-0.6-0.5c-0.4-2.1-1.6-1.2-2.4-1.9c-0.5-0.4-0.6,1-0.6,1.9
			c-0.1,0.4-0.1,0.9-0.3,0.9c-1.2-0.1-2.3,1-3.5,0.6l0,0c0.6-1.6,1.2-3.4,2.4-4.2c0.4-0.3,0.7-0.7,0.7-1.6l0,0
			c0.3,0.1,0.6,0.1,0.8,0.2c1,0.6,1.8,1.1,1.2-1.7c-0.1-0.2,0-0.7,0.1-0.9c0.3-0.7,0.4,1.1,1,1.1c1.4,0.2,2.3-3.3,4-1.8
			c1.1,1,2.3,0.2,3.4,0.3C75.3,117.4,76.6,115.3,77.9,116.8z"/>
		<path class="st0" d="M73.8,143c-0.5,1-1,1-1.5,0.1c-0.6-1-1.4-0.9-2-1.4s-3,2-2.9,3.1c0.1,1.5,0.1,1.4-0.6,0.9
			c-0.9-0.6-1.3,0.7-1.8,1.7c0.6,0.5,1.1,1.2,1.6,2.2c0.3,0.7,0.4,1.5,0.4,2.3c0.5,1.1,0.2,2.3,0.3,3.5c1.3,0.1,2.1-1.6,3.4-2.6
			c-2-0.3-0.6-2.7-1.1-4c-0.2-0.4,0.3-0.7,0.5-0.4c0.8,1,1.1,0,1.4-1c0.5-1.8,1.1-3.3,2.5-2.7c0.5,0.2,0.6-0.8,0.8-1.4
			C74.5,142.3,74.2,141.8,73.8,143z"/>
		<path class="st1" d="M60.4,10.4C62.3,8,60,10,61.8,7.3c0.5-0.7,0.5-1.6,0.6-2.4c0.2-2.5,1.1-4.6,1.6-6.8c0.2-0.9,0.7-1.3,1.3-1.5
			c1.5-0.7,3-1,4.5-2c1.1-0.9,1.5,1.2,2.2,2.1c-1.3,1-2.8,1.1-4.1,1.5c-1,0.2-1.9,0.8-2.8,1.4c-1,0.7-1.4,2.8-1.6,4.3
			c-0.6,3.7-1,3.1-2.3,5.6"/>
		<path class="st0" d="M66.8,111.5c0.3-0.1,0.6-0.2,0.6-1c0-0.4,0.1-1,0.3-0.8c1.7,1.5,2.5-1.9,4-2c1.1-0.1,2.3-1.8,3.1,1.1
			c0.2,0.7,1,0.7,1.6,1.1c0.6,0.4,1.3,0.6,1.3,2.2c-2.5-1.4-5.1-1.2-7.6-0.8c-0.2,0-0.5,0.3-0.7,0.2c-1-0.4-1.7-0.3-1.6,2.1
			c0,0.4-0.1,1-0.5,1.1c-0.3,0.1-0.5-0.4-0.6-0.8C66.5,113.2,66.5,112.3,66.8,111.5z"/>
		<path class="st0" d="M66.4,116.9c-2.8,2.5-4.9,1.8-7.3,5.3c0.1,0.4,0.1,0.8,0.1,1.2c0.7-0.7,1.6-1,2.1-1.8
			c0.7-1.2,1.4-1.7,2.3-1.7c0.1-0.6-0.6-1.4,0.2-1.9c1.5-1.1,2.1-0.7,2.8-2.9C66.5,115,66.4,116.9,66.4,116.9z"/>
		<path class="st1" d="M65.8,177.4c1,0.2,1.6,1.8,2.4,2.5c0.1,0.1,0.3,0.6,0.3,0.8c-0.6,1.9-0.1,5-1.8,5.8c-0.3-2.3-1.1-4.4-0.5-6.9
			C66.4,178.7,65.9,178.1,65.8,177.4z"/>
		<path class="st0" d="M77.5,143.3c-0.5,2.2-0.2,4.6-0.7,6.9c-0.6-2.3-1.1-4.6-1.7-6.8C75.9,142.9,76.7,143.1,77.5,143.3z"/>
		<path class="st1" d="M60.8,47.1c1.3-0.4,2.4-1.8,3.7-2.1c-0.7-1.3-2.2-1.1-3.3-0.1c-0.2,0.3-0.3,0.5-0.5,0.7
			C60.8,46.1,60.8,46.6,60.8,47.1z"/>
		<path class="st0" d="M80.8,185.2c-0.4-1.4-0.9-2.9,0.7-2.5C81.6,183.7,81.4,184.7,80.8,185.2z"/>
		<path class="st0" d="M66,105.5c0.4,0.4,0.3,1.1,0.2,1.7C65.8,106.8,65.8,106.2,66,105.5z"/>
		<path class="st0" d="M60.5,125.7c-0.2,0.5-0.5,0.5-0.7,0.7c-0.1-0.1-0.1-0.2-0.1-0.3C59.9,125.6,60.2,125.6,60.5,125.7L60.5,125.7
			z"/>
		<path class="st0" d="M63.3,63.7c0-0.4,0.1-0.7,0.3-0.9l0,0C63.6,63.1,63.5,63.5,63.3,63.7L63.3,63.7z"/>
		<path class="st0" d="M63.6,62.7c0.1-0.2,0.2-0.3,0.3-0.5l0,0C63.8,62.4,63.7,62.6,63.6,62.7L63.6,62.7z"/>
		<path class="st1" d="M84.3,92.6c-0.1,0-0.2,0-0.3,0C84.2,92.6,84.3,92.6,84.3,92.6z"/>
		<path class="st2" d="M82.7,171.3c-0.5-0.9-1.3-1.4-2-1.7c-1.5-0.7-2.4-1.8-3.2-4.2c-1-3.3-3.7-4.7-5.3-2.8c-0.7,1-1.5,1.1-2.3,0.7
			c-0.4-0.2-0.9-0.6-1,0.3c-0.1,0.8,0.1,2,0.9,1.9c0.5-0.1,0.8,0.2,1,1.2c0.3,1.6,1.6,1.9,2.4,0.7c0.6-0.9,0.9-1.3,1.6,0
			c0.6,1.1,1.3,2.1,2.4,1.9c0.5-0.1,0.9,0.3,0.9,1.4c0.9-0.1,1.7,0.1,2.4,1c0.7,0.8,1.4,1.4,2.2,1.9c0.1-0.2,0.2-0.5,0.3-0.7
			c0-0.2,0-0.3,0-0.5C82.8,172.1,82.7,171.7,82.7,171.3z"/>
		<path class="st2" d="M75.4,188c-0.2,0.6-0.9,0.8-0.6,1.8c0.3,0.9,0.6,0.6,1,0.1c0,2.2-1.1,6.7-2.4,6c-0.2-0.1-0.5-0.6-0.7-0.1
			c-0.9,1.8-1.5,0.4-2.2-0.4c-0.2-0.3-0.3-1.1-0.7-0.8c-0.7,0.4-0.6-3.7-0.7-4.3c-0.2-0.8,0.1-1.1,0.5-1.4c1.4-1.1,2.7-2.3,4.2-0.7
			C74.1,188.6,74.8,188.1,75.4,188z"/>
		<path class="st2" d="M75.9,187.3c-0.2,0.2-0.3,0.4-0.5,0.6C75.5,187.6,75.5,187,75.9,187.3z"/>
		<path class="st2" d="M63.5,62.7c0.1-0.2,0.2-0.3,0.3-0.5c1.3-1.1,2-3.2,2.7-5.1c0.3-0.8,0.4-1.5,0.9-1.4c1.6,0.3,2.9-1.6,4.3-1.3
			c1.6,0.2,3,1.1,4.4,2.2c0.1,0.1,0.3,0.6,0.3,0.8c-0.2,2-1.3,2.8-2,4.2c-0.3,0.8-0.8,0.7-1.2,0c-0.7-1.1-1.1-1.3-1.3,0.8
			c-0.1,1.6-0.9,1.8-1.7,0.4s-1.8-2.8-2.9-1.4c-1.1,1.5-2.5,2.1-3.7,3.4c-0.2,0.2-0.5,0.4-0.6,0c-0.1-0.3,0.1-0.8,0.1-1.2
			C63.5,63.5,63.6,63.1,63.5,62.7z"/>
		<path class="st2" d="M76.5,83.5c0,0.1,0.1,0.3,0.1,0.4c0.1,1.5-0.3,2.3-1.2,2c-1.1-0.4-2.2,0.8-3.4,0.1c-0.6-0.3-1.1,0.6-1.4,1.7
			c-0.2,0.8-0.5,1.6-1,1.9c-1.2,0.7-2.6,0.4-3.7,2.5c0.2-2.6,0.9-4,1.5-5.6c0.6-1.4,1.3-2.5,2.4-2.1c1.3,0.4,2.3-1.1,3.6-1.1
			C74.5,83.4,75.5,83.2,76.5,83.5z"/>
		<path class="st2" d="M76.6,28c0.5,0.7,0.7,1.7,1.4,1.9c-0.2,0.2-0.3,0.5-0.5,0.4c-1.5-1.5-2.5,0.7-3,2.1c-0.9,2.2-1.6,0.9-2.3,0.3
			c-0.7-0.7-1.1-1.4-1.2,0.7c-0.1,2-0.7,1.6-1.3,0.8c-0.6-0.9-1-2.1-1.8-3.1c0.4,3.3-0.9,2.6-1.6,3c-0.6,0.3-0.6-0.3-0.6-1
			c-0.1-0.7-0.1-1.4-0.1-2.1c-0.1-0.1,0-0.3,0.1-0.4c0.4,0.5,0.6,0.2,0.7-0.5c0.1-0.7,0.3-1.4,0.7-1.6c1.6-0.8,3.1-2.1,4.8-2.2
			C73.6,26,75,27.5,76.6,28z"/>
		<path class="st0" d="M76.6,28c-1.6-0.4-3-2-4.7-1.9c-1.7,0.2-3.2,1.4-4.8,2.2c-0.5,0.2-0.6,1-0.7,1.6c-0.1,0.7-0.3,1-0.7,0.5
			c0.3-1.4,0.4-3,1.5-3.5c0.7-0.3,1.4-0.5,0.8-2.5c-0.3-1,0.6-1.6,1.1-1.7c1.3-0.3,2.6,0.1,4-0.5c0.3-0.1,0.9,0.1,0.9,0.8
			c0.1,1.1-0.9,0.7-1.1,1.8C74.3,25,75.7,25.7,76.6,28z"/>
		<path class="st2" d="M73,5.8c-0.9,0.9-1.6,1.3-1.7-1.2c-0.1-1.4-0.7-2-1.4-2.1c-1-0.3-2-0.5-3.2-0.7c0.7-1.9,2-2,2.8-2.3
			c1.1-0.4,2.6-0.4,3.8,0.6c0.7,0.6,0.8,1.2,0.6,2.3C73.2,3.3,72.3,4,73,5.8z"/>
		<path class="st1" d="M73,5.8c-0.6-1.9,0.3-2.5,0.9-3.4c1.9-0.6,2.3,0.1,1.7,3c-0.3,1.9-1.1,2.3-2,0.9C73.4,6.1,73.1,6,73,5.8z"/>
		<path class="st2" d="M66.4,6.3c1-0.7,1.7-0.4,2.2-1.2c0.3-0.5,1,0.2,1,1.2S69.5,8,68.8,8.1C68,8.3,67.3,7.3,66.4,6.3z"/>
		<path class="st0" d="M73.2,97.2c0.2-2-0.5-2.8-1.7-3.5c1-0.6,1.7-0.9,2.1,0.1C74,94.9,73.5,96,73.2,97.2z"/>
		<path class="st0" d="M81.7,123.3c-0.8,1.2-2.4,0.5-2.6-1.1c-0.1-0.3,0-0.5,0.1-0.6c0.2-0.3,0.5-0.2,0.6,0.1
			c0.3,0.4,0.6,0.7,0.9,1.1C81,123.2,81.5,122.6,81.7,123.3z"/>
		<path class="st0" d="M80.1,175.4c0.3,0.2,0.6,0.3,0.5,0.9c-0.2,0.6-0.2,1.6-0.6,1.7c-0.4,0.1-0.5-0.8-0.5-1.4
			C79.4,175.9,79.7,175.5,80.1,175.4z"/>
		<path class="st3" d="M101.5,84.4c0.1,0,0.1,0.1,0.1,0.1C101.6,84.5,101.6,84.5,101.5,84.4L101.5,84.4z"/>
	</g>
</g>
</svg>
