<?xml version="1.0" encoding="utf-8"?>
<!-- Generator: Adobe Illustrator 21.0.2, SVG Export Plug-In . SVG Version: 6.00 Build 0)  -->
<svg version="1.1" id="Layer_1" xmlns="http://www.w3.org/2000/svg" xmlns:xlink="http://www.w3.org/1999/xlink" x="0px" y="0px"
	 viewBox="0 0 143.6 206.4" style="enable-background:new 0 0 143.6 206.4;" xml:space="preserve">
<style type="text/css">
	.st0{display:none;fill:#948B7D;}
	.st1{fill:#CEC7B6;}
	.st2{fill:#948B7D;}
	.st3{fill:none;}
	.st4{fill:#FFFFFF;}
</style>
<g id="Laag_6_1_">
	<g>
		<path class="st0" d="M100.2-107.1c0.1,0,0.1,0.1,0.1,0.1S100.3-107,100.2-107.1L100.2-107.1z"/>
	</g>
</g>
<path class="st1" d="M76.2,101.4c0.2,1.8,1.3,2.9,1.3,5c0.5-1.1,2.1-1.4,0.6-3.6"/>
<path class="st1" d="M76.8,100.4c-0.1,2.3,0.3,4.6,0.6,7c1.3-1.6,0-3.8,0.7-5.5"/>
<path class="st1" d="M70.1,94.8c1.3,0.1,1.8,2,2.8,2.8c0.2,0.2,0.3,0.8,0.3,0.9c-0.7,2.1,0,5.6-2.1,6.5c-0.1,0.3-0.2,0.8-0.2,1
	c0.8,2.8,0.7,7.9-0.3,9.7c0.1,2.2,0.6,2.9,0.8,3.7c4.1,0,6.3-1.8,10.5-1.9c1.4,0,1.3,0.4,2.7-0.5c-1.2-1.6-1-5.9-1.7-8.3
	c-0.3-1.3-0.9-0.3-1.4,0.2c0,2.5-1.3,7.4-2.8,6.7c-0.2-0.1-0.6-0.7-0.8-0.1c-1,2-1.7,0.4-2.5-0.4c-0.2-0.3-0.3-1.2-0.8-0.9
	c-0.8,0.4-0.7-0.9-0.8-1.4c-0.2-0.9,0.2-4.6,0.6-4.9c1.6-1.2,3.1-2.6,4.8-0.8c0.5,0.4,1.3-0.1,1.8-0.2l0.1,0.1l0.1-0.1
	c0.1-0.4,0.1-1.1,0.6-0.7c0.9,0.1,0.8-0.9,0.8-1.8c0-1.2-0.1-2.8-0.8-2.9c-2.1-0.4-3.9-4-6.3-1.8c-0.6,0.4-1.2-0.1-1.5-1
	c-0.3-0.8-0.1-1.4,0.2-2.1c1-2.7,2-5.2,2.9-7.9"/>
<path class="st1" d="M76.6,102.8c0.1,0.8,0.1,1.4,0.1,2.2c0.5-0.3,0.9-0.7,1.5-0.8"/>
<path class="st2" d="M73,88.4c-1,2.7-2,5.3-2.9,7.9c-0.2,0.7-0.6,1.2-0.2,2.1c0.3,0.9,1,1.4,1.5,1c2.4-2.2,4.3,1.3,6.3,1.8
	c0.8,0.2,0.8,1.7,0.8,2.9c0,0.9,0.1,2-0.8,1.8c-0.2,0.2-0.3,0.4-0.6,0.7l-0.1,0.1l-0.1-0.1c-0.2,0.7-1,0.9-0.7,2
	c0.2,1,0.7,0.7,1.2,0.1c0.5-0.6,1-1.6,1.4-0.2c0.7,2.5-0.2,9.1,0.9,10.7c0.7,0.6,1.5,0.2,2.3-0.3c-0.7-2.2-0.2-7-0.5-10
	c-0.2-2.9,0.1-4.5,1.6-5.5c-0.2-1.4-0.7-3,1-2.7c0.1-1.6,0.1-3.1,0.1-4.7c0-1,0.1-1.8,0.7-2.1"/>
<path class="st2" d="M75.8,98.9c1.2,0.2,1.8,2,2.8,2.8c0.1,0.1,0.3,0.7,0.3,0.9c-0.7,2.1-0.1,5.6-2.1,6.5c-0.3-2.6-1.3-4.9-0.6-7.7
	C76.5,100.3,75.9,99.6,75.8,98.9"/>
<path class="st3" d="M77.2,105.4c-0.5-1.6-1-3.2,0.8-2.8C78.1,103.7,77.9,104.8,77.2,105.4z"/>
<path class="st4" d="M80.8,99.4c-0.2,0.7-1,0.9-0.7,2c0.3,1,0.7,0.7,1.2,0.1c0,2.5-1.3,7.5-2.8,6.7c-0.2-0.1-0.6-0.7-0.8-0.1
	c-1,2-1.7,0.4-2.5-0.4c-0.2-0.3-0.3-1.2-0.8-0.9c-0.8,0.4-0.7-4.1-0.8-4.8c-0.2-0.9,0.1-1.2,0.6-1.6c1.6-1.2,3.1-2.6,4.8-0.8
	C79.3,100.1,80.1,99.5,80.8,99.4z"/>
<path class="st4" d="M77.7,103.6c-0.2,0.2-0.3,0.4-0.6,0.7C77.2,104,77.2,103.3,77.7,103.6z"/>
<g id="Laag_6">
	<g>
		<path class="st1" d="M75.1,207.5c0.5-1.1,1.8-2.9,0.3-5c-0.2-0.3-0.2-1-0.1-1.4c0.3-0.7,0.3,0.4,0.4,0.7c0.2,0.6,0.8,0.6,1.3,0.6
			c0.3,0,0.8-0.1,0.9-0.8c0.2-1.3,0.3-1.3,0-1.6c-0.7-0.8-1.5-1.1-1.5-2.3c0-1.2-0.5-1.7-1-1.6c-1.2,0.3-2.1-0.9-2.8-2.1
			c-0.7-1.4-1.2-1-1.8,0c-0.9,1.3-2.3,1-2.8-0.8c-0.2-1.1-0.6-1.3-1.2-1.3c-0.9,0.1-1.2-1.1-1-2.1c0-1,0.6-0.6,1-0.3
			c0.9,0.3,1.7,0.3,2.6-0.8c1.7-2.1,4.8-0.7,6.1,3.1c0.8,2.7,2,3.9,3.7,4.7c0.7,0.3,1.5,0.9,2.1,1.8c-0.1-0.4-0.1-0.8-0.1-1.2
			c0-0.1,0-0.2,0-0.3c-0.1,0-0.1-0.1-0.1-0.2c-1.5-1.6-2.3-3.6-2.1-6.6c0.1-1.1,0.3-2.5-0.3-3.2c-0.2,1.9-1.5,3.1-1,5.8
			c0.1,0.4-0.5,0.3-0.7,0c-0.6-0.8-0.8-1.6-0.8-2.8c0.1-1.3,0.1-2.6-0.8-3.1c-0.6-0.3-0.3-1-0.2-1.6c0.6-1.6-0.1-2.2-0.7-2.6
			c-2-1.1-4.3-2.1-5.9,0.4c-1.6,2.6-3.3,1.8-5.1,1.8c-0.2,2.1-0.5,4.3-0.3,6.6c0.1,2-0.1,4.3-1.2,5.8c-0.1,0.2-0.2,0.3-0.3,0.6
			c-0.2,1.9-0.6,3.7-1,5.6c-0.1,0.2-0.1,0.4-0.1,0.7c0.1,0.8,0.1,1.4,0.1,2.2c0.5-0.3,0.9-0.7,1.5-0.8c1.3,0.1,5.5,0.8,6.5,1.6"/>
		<path class="st1" d="M71.3,206.9"/>
		<path class="st1" d="M82,78.5c-1.2-1.2-2.4-2.5-3.7-3.7c-1.6-1.4-2.8-3.3-3.1-6.5c-0.5,0-0.9-0.2-0.8-1.1c0.3-3.2-1.2-3.3-2.3-3.6
			c-0.9-0.2-1.7-0.7-2.5-1.1c-2-1-2.9-0.1-3.5,3.2c-0.3,2.7-2.4,3.6-4,1.9c-0.2,3.5-1.5,6.2-2.3,9.2c1.5-1.2,2.3-3.6,2.9-5.7
			c0.3-0.9,0.5-1.7,1-1.6c1.8,0.4,3.3-1.7,5-1.4c1.7,0.2,3.5,1.2,5.1,2.5c0.1,0.1,0.3,0.7,0.3,0.9c-0.2,2.1-1.5,3.1-2.3,4.7
			c-0.3,0.8-0.9,0.8-1.4,0c-0.8-1.2-1.3-1.4-1.5,0.9c-0.1,1.8-1,2-2,0.4C66,76,64.8,74.5,63.6,76c-1.3,1.7-2.9,2.3-4.3,3.8
			c-0.2,0.2-0.3,0.3-0.6,0.1c-0.1,3.5-0.7,7-1.8,10.2c1.7-1.6,3.5-2.7,5.2,0.2c0.6-1.6,0.3-2.6-0.7-3.2c-1.2-0.7-0.9-1.6,0-2.5
			c0.7-0.7,1.4-1.1,1.6-2.7c0.2-1,0.7-0.9,1.2-0.3c0.6,0.8,1.2,0.8,1.5-0.2c0.6-2,1.5-2,2.8-2c1.8,0.1,3.6-0.2,5,2.1
			c0.6,1,1,0.9,1.5-0.3c1.3-3,2.5-3,4.3-0.7c0.5,0.7,0.9,1.3,1.5,2C81,81.1,81.4,79.8,82,78.5z"/>
		<path class="st1" d="M83.6,111.9c0-0.3-0.1-0.6-0.1-0.9c-0.1,0-0.1,0-0.2,0h-0.3c-0.7-0.1-1.3-0.7-2-1.4c-1-1.3-2.1-3-3.3-4.1
			c-1.3-1.1-2.2-2.7-3.2-4.1c0.1,1.8-0.3,2.6-1.4,2.2c-1.3-0.4-2.5,0.8-3.9,0.1c-0.6-0.3-1.2,0.7-1.5,1.9c-0.2,0.9-0.6,1.8-1.2,2.1
			c-1.4,0.8-3,0.4-4.3,2.8c0.2-2.9,1-4.6,1.7-6.2c0.6-1.6,1.5-2.7,2.8-2.3c1.5,0.3,2.8-1.3,4.1-1.2c1.2,0,2.4-0.2,3.6,0.1
			c0.6-1.1-0.1-1.1-0.3-1.3c-2-1.3-3.9-0.8-6-0.7c-1.5,0.1-2.9,1.9-4.4,0.9c-0.5,0.9,0.8,3.2-0.8,3.1c-0.7,3.3-2.1,5.8-3.7,7.8
			c-0.2,0.2-0.3,0.4-0.6,0.7c-0.1,1.9-0.2,3.7-0.5,5.6c0.5,0,0.3,0.7,0.2,1.6c0.1,0.8,0.5,1.3,0.3,2.1c1,0.6,1.8,1.9,2.9,2.1
			c-0.1-1-0.8-2.1-0.1-2.9s1.2,0.3,1.5,1.2c0.1,0.2,0.3,0.4,0.6,0.4c0.3,0.1,2-3.8,2-4.3c-0.1-0.9-0.1-1.8-0.2-2.7
			c0-0.2-0.1-0.6-0.1-0.8c2,0.2,1.7-4.5,3.8-4.5c2-0.1,4.3,3.7,4.8,6.6c0.1,0.4,0.1,0.9,0.3,1.2c0.3-0.3,0.2-1,0.2-1.6
			c0.2-2.9,0.6-3.3,2.1-1.8c1,1.1,1.2-0.1,1.3-1.1c0.2-1.8,0.7-1.9,1.5-0.9c0.7,0.8,1.6,1.3,2.5,2.1c-0.7,1-2-0.2-2.1,1.9
			c-0.1,0.7-0.1,1.6,0.3,1.1c1-0.8,2.2,0.1,3-1.4c0-0.6-0.1-1.2,0.2-1.4c0.1-0.1,0.2-0.1,0.3-0.1C83.7,113.1,83.7,112.4,83.6,111.9z
			"/>
		<path class="st1" d="M79.7,44.6l-0.3-0.3c-0.2-0.2-0.3-0.4-0.5-0.7c0-0.1-0.2-0.4-0.7-1.3c-1,0.9-1.3-1.4-2.2-1.2
			c-0.2,0.1-0.5,0.6-0.6,0.4c-1.7-1.7-2.9,0.8-3.5,2.3c-1,2.5-1.8,1-2.6,0.3c-0.8-0.8-1.3-1.6-1.4,0.8c-0.1,2.2-0.8,1.9-1.5,0.9
			c-0.7-1-1.2-2.3-2.1-3.5c0.5,3.7-1,2.9-1.8,3.3c-0.7,0.3-0.7-0.3-0.7-1.1s-0.1-1.6-0.1-2.3c-1.3,1.7-2.2,4.2-3.3,6.1
			c-0.3,0.7-0.8,1.3-1.3,1.9c0.3,0.9,0.6,2,0.7,3.2c0.1,1.6-0.3,3.1-1.2,4.1c1.3-1.2,3-1.3,3.8,0.4c-0.1,0.4,0.1,0.6,0.2,0.6
			c1,0.3,2,0.7,1.8-2c-0.1-1.1,0.3-1.2,0.9-0.9c0.3,0.2,0.7,0.3,0.8-0.2c0.2-0.6,0-1-0.2-1.4c-0.3-0.7-1-1.3-0.3-2.1
			c0.6-0.7,0.8,0.4,1.2,1.2c0.2,0.6,0.2,1.6,0.8,1.3c0.3-0.2,0.6-1,0.7-1.7c0.6-3,1.5-3.5,3-1.6c0.6-0.8-0.2-2.8,1.2-2.9
			c1.8-0.1,2,0,3.2,4.1c0.5-0.2,0.2-0.9,0.3-1.3c0.3-1.6,0.8-3,2-3.6c0.8-0.6,1.5,0.2,1.8,1v-0.6c-0.1-0.6-0.1-1.3-0.3-1.7
			c-0.6-0.8-0.5-1.6,0-2.2c0.6-0.7,0.8,0.3,1.2,0.7c0.8,0.7,0.8,3,2,3.1C80.2,46.9,80,45.7,79.7,44.6z"/>
		<path class="st1" d="M79.4,51.7c-0.1-1.1-1-1.4-1.3-2.2c-0.1-0.2-0.2-0.6-0.3-0.9v0.1C75.8,45.9,78.1,49.5,79.4,51.7z"/>
		<path class="st2" d="M75.4,39.4c-0.3-0.3-0.8-0.4-0.8-1.3s0.6-1.1,0.9-1.2c1.4-0.4,1.2-1.6,0.3-2.8c-1.5-2.3-1.5-5.6-1.8-8.6
			c-0.2-2.1,1.3-2.2,2-3.1c0.3-0.4,0.6-0.4,0.8-0.3c0.2-0.6,0.3-1.1,0.7-1.6c-0.1-0.3-0.2-0.8-0.5-1.1c-0.6-0.9-0.8-0.9-1.6-0.8
			c-1.3,0.2-2.8,1.4-4.1-0.4c-0.8-1.1-2-1.2-3-1.4c-0.9-0.2-0.5,1.4-0.6,2.2c-0.1,0.3,0,0.9-0.3,1c-0.1,0-0.3-0.3-0.5-0.6
			c-0.5-1.4-0.8-2.3-2-1.1c-0.3,0.4-1.2-1.9-1.6,0c-0.3,1.2,0.2,2.2,0.5,3.3c0.2,1.4-0.2,2.7-0.3,4.1c0,0.6-0.6,1-0.8,0.3
			c-0.3-1.3-1.3-2.5-0.8-4.1c0.5-1.8-0.1-2.8-1-4.2c0.1,1.7-0.2,2.3-0.9,2.9c-1,0.8-1.4,1.9-0.7,4c0.5,1.2,1.8,2.6,1,4
			c-0.6,1.3-1.3-1-2.1-1.2c-0.8-0.3-1.6-0.2-2.5-0.3c0.7,1.7,1.8,2.2,2.9,3.1c0.9,0.8,1.2,1.7,0.9,3.3c-0.2,1.6-0.5,3.2,0.3,4.7
			c0.9,1.7,0.7,4.5-0.3,6.1c-0.3,0.6-0.7,0.9-1.2,1.4c-0.5,0.7-0.9,1.3-1.5,2c0,0.8,0,1.4-0.1,2.2l0.1,0.1c0.5-0.7,0.9-1.3,1.3-2
			c1.3-1.9,2.1-4.5,3.3-6.1c0-0.2,0-0.3,0.1-0.4c0.3-1.6,0.5-3.3,1.7-3.9c0.8-0.3,1.7-0.6,0.9-2.8c-0.3-1.1,0.7-1.8,1.3-1.9
			c1.5-0.3,3,0.1,4.6-0.6c0.3-0.2,1,0.1,1,0.9c0.1,1.2-0.9,0.8-1.3,2c1.8,0.1,3.3,0.9,4.4,3.5c0.6,0.8,0.9,1.9,1.6,2.1
			c0.8-0.2,1.2,2.1,2.1,1.2C77.6,40.3,76.5,40,75.4,39.4z"/>
		<path class="st1" d="M77.6,13v-0.1c-0.7-1.1,0.2-8.8,0.5-11.3c0.1-0.6-0.2-1.1-0.8-1.3c-2.8-1.1-8.3-0.8-11-0.5
			c-0.5,0-1.3,1.6-1.4,2.1c-0.4,1.3,0.8,3-0.4,3.4c-1.2,0.3-2.2,0.9-3.2,1.6c-1.2,0.7-1.6,3.1-1.8,4.8c-0.5,2.9-1.6,4.8-2.8,6.6l0,0
			c-0.2,0.2-0.5,0.4-0.6,0.6c0.1-0.2,0.1-0.3-0.2,0c-0.1,0.1-0.1,0.2-0.1,0.2c-1.5,1.7-2.8,4.1-2.4,7.2c0.1,1.1,0.2,1.4,0.8,0.7
			c0.2-0.3,0.6-0.8,0.9-1c1.8-1.3-1.4,1.2,0.7,0.8c0.8,0.1,1.6,0,2.5,0.3c0.8,0.2,1.5,2.6,2.1,1.2c0.7-1.4-0.7-2.7-1-4
			c-0.7-2-0.3-3.2,0.7-4c0,0,0,0,0,0c0.9-0.7,2.2,0,2,1.1c0,0.1,0,0.2-0.1,0.2c-0.3,1.8,0.6,2.8,0.8,4.1c0.2,0.8,0.7,0.3,0.8-0.3
			c0.1-1.3,0.6-2.7,0.3-4.1c-0.2-1.1-0.8-2.2-0.5-3.3c0.6-1.9,1.3,0.6,1.6,0c1-1.2,1.5-0.3,2,1.1c0.1,0.3,0.3,0.6,0.5,0.6
			c0.3,0,0.2-0.6,0.3-1c0.1-0.9-0.3-2.5,0.6-2.2c1,0.2,2.2,0.3,3,1.4c1.3,1.9,2.9,0.7,4.1,0.4c0.8-0.1,1,0,1.6,0.8l0.5-1
			c0.1-0.2,0.2-0.5,0.1-0.8C77.5,15.8,77.4,14.4,77.6,13z M55.2,20.5c-0.6,0.9,0.2-0.6,0.7-1.4l0.1,0.1
			C55.8,19.7,55.5,20.1,55.2,20.5z M65.5,16.5c-0.5,0.1-1-0.2-1.5-0.6c-0.6-0.6-0.5-1.7,0.3-2c0.3-0.1,0.6-0.3,0.9-0.7
			c0.3-0.7,1.2,0.1,1.2,1.3C66.5,15.6,66.2,16.4,65.5,16.5z M73.1,13.5c-0.3,2.1-1.3,2.6-2.3,1c-0.1-0.2-0.5-0.3-0.6-0.6
			c-1,1-1.8,1.4-2-1.3c-0.1-1.6-0.8-2.1-1.6-2.3c-0.6-0.1-1.3-0.2-1.9-0.4c-1-0.2-1.3-1.5-0.5-2.1c0.7-0.5,1.5-0.6,2-0.8
			c1.3-0.4,3-0.4,4.4,0.7C71.1,8,71.3,8.4,71.4,9c0.1,0.5,0.5,1,1.1,1C73.5,10,73.7,11,73.1,13.5z"/>
		<path class="st2" d="M84.8,117.9c0-0.1-0.1-0.1-0.1-0.2c-0.2-0.8-0.3-1.6-0.6-2.3c-0.2-0.2-0.6-0.3-0.8-0.2
			c-0.8,1.6-2.1,0.6-3,1.4c-0.6,0.4-0.5-0.4-0.3-1.1c0.2-2.2,1.5-0.9,2.1-1.9c-0.9-0.8-1.8-1.3-2.5-2.1c-0.8-1-1.3-0.9-1.5,0.9
			c-0.1,1-0.2,2.1-1.3,1.1c-1.5-1.6-2-1.2-2.1,1.8c-0.1,0.6,0.1,1.2-0.2,1.6c-0.3-0.3-0.3-0.8-0.3-1.2c-0.6-2.9-3-6.6-4.8-6.6
			c-2.1,0-2,4.7-3.8,4.5c0,0.2,0.1,0.6,0.1,0.8c0.1,0.9,0.1,1.8,0.2,2.7c0,0.6-1.6,4.3-2,4.3c-0.2,0-0.3-0.2-0.6-0.4
			c-0.3-0.9-0.8-2-1.5-1.2c-0.7,0.8,0.1,1.9,0.1,2.9c0.1,0.8,0.3,1.7,0.6,2.8c0.5,0.4,0.3,1.1,0.2,1.9c0.2,1.7,0.5,3.2,0.7,4.8
			c0.3-0.1,0.7-0.2,0.7-1.1c0-0.4,0.1-1.1,0.3-0.9c2,1.7,2.9-2.1,4.6-2.2c1.3-0.1,2.6-2,3.6,1.2c0.2,0.8,1.2,0.9,1.8,1.2
			c0.7,0.4,1.5,0.7,1.5,2.5c0.5,1,0.9,2,1.5,2.8c0.1-0.2,0.1-0.3,0.1-0.4c0.3-1,1-1.9,1.6-2.3c0-2.8,0.7-5.5,1.4-8
			c0.2-0.8,0.5-1.8,1-1.9c0.9-0.2,2-0.6,2.9-0.8C84.2,120.5,84.3,119,84.8,117.9L84.8,117.9z M70.5,115.8c0.1-2.2-0.7-3.2-2-3.9
			c1.2-0.6,2-0.9,2.4,0.1C71.5,113.2,70.8,114.5,70.5,115.8z"/>
		<path class="st2" d="M82.4,108.7c-1.7-2.3-3.3-4.6-5.1-6.8c-0.5-0.6-1-0.9-0.8-2c0.2-1,0.7-0.6,1.2-0.7c1.2-0.2,1.6-1.8,2-3.2
			c0.3-1.6-0.7-1.7-1.2-2.2c-1.6-1.9-2.3-4.7-2.4-7.8c-0.1-2.2,1.4-2.5,2.1-3.9c0.3-0.8,0.8-1,1.6,0c0.3,0.6,0.8,1.1,1.3,1.6
			c0.1-0.4,0.1-1,0.2-1.4c-0.3-0.6-0.8-1-1.2-1.6c-1.6-2.3-3-2.3-4.3,0.7c-0.6,1.1-0.9,1.3-1.5,0.3c-1.4-2.3-3.2-2-5-2.1
			c-1.2,0-2.1,0-2.8,2c-0.3,1-0.9,1-1.5,0.2c-0.5-0.6-1-0.7-1.2,0.3c-0.2,1.6-0.9,2-1.6,2.7c-0.9,0.8-1.2,1.8,0,2.5
			c1,0.7,1.3,1.7,0.7,3.2c0.1,4-0.3,8.1,0.2,12.1c1.6,0.1,0.3-2.2,0.8-3.1c1.6,1,2.9-0.8,4.4-0.9c2-0.1,4-0.7,6,0.7
			c0.3,0.3,0.9,0.3,0.3,1.3c0,0.1,0,0.3,0.1,0.4c1,1.4,2.1,3,3.2,4.1c1.2,1.1,2.2,2.8,3.3,4.1c0.7,0.8,1.2,1.3,2,1.4
			C83.2,109.5,82.6,109.1,82.4,108.7z"/>
		<path class="st2" d="M80.6,164.5c-0.8-0.9-1.2-2-1-3.6c0.1-1.1,0.1-2.3,0-3.5c-0.1-1.4,0.2-2.5,1-3.3c0.3-0.3,0.7-3,0.9-3.3
			c-0.3-0.8-0.6-1.8-0.7-2.7c-0.1-1.8,0.2-3.5,0.9-4.6c-0.1-0.3-0.2-0.7-0.3-0.9c-0.6-1.3-0.8-3-1-4.6c-0.7-0.1-1.2,2.9-1.8,2.3
			c-0.6-0.4-0.9-1.2-1.3-2.1c-0.5-0.2-0.9-0.4-1.4-0.7c-0.1,1.8,1.5,0.1,0.1,2c-0.3-0.2-0.2-1.4-0.7-1.6c-0.2-0.1-0.8-0.2-0.6,0.4
			c0.7,2.1-0.1,4.5,0.5,6.6c-1-2.5-1.3-5.6-3-7.2c-0.5,0.3-0.3,1.7-1,2.2c-0.7-2.3-1.2-2-2.3-0.2c-1,1.7-2,4-3.7,4
			c-0.5,0-0.8,0.4-0.6,1.4c0.1,0.4,0.2,1-0.2,1.2c-0.2,0.1-0.6-0.1-0.7-0.6c-0.5-2.3-1.8-1.4-2.8-2.1c-0.6-0.4-0.7,1.1-0.7,2.1
			c2.5,0.2,2.5,0.2,2.9,4.5c0.1,1,0.2,4.3,0.3,5.3c1.3,1.9,2.1-0.3,2.5-1.6c1-3,2.8-4.9,4.1-4.8c1.6,0.1,3.7,1.1,5,4.5
			c0.2,0.7,0.6-2.7,0.9-2.8c0.3-0.2,0.8-0.2,1.2,0.4c0.3,0.9,0.1,4-0.1,4.8c-0.2,1.2-0.6-0.1-0.8-0.2c-0.7-0.3-0.8,0.3-0.7,1.1
			c0.3,2.1,0.3,4.2,1.6,5.8c1.3,1.3,2.5,2.9,3.7,4.5c1,1,2,2.1,3,3c0.1-0.3,0.2-0.8,0.3-1.1C83.3,167.5,82,165.9,80.6,164.5z
			 M77.2,143.6c-0.1-0.4,0-0.6,0.1-0.7c0.2-0.2,0.6-0.1,0.7,0.1c0.3,0.4,0.7,0.9,1,1.2s0.8-0.2,1.2,0.6
			C79.4,146.2,77.6,145.4,77.2,143.6z"/>
		<path class="st2" d="M60.8,58.1c1,0.3,2,0.7,1.8-2c-0.1-1.1,0.3-1.3,0.9-0.9c0.3,0.2,0.7,0.3,0.8-0.2c0.1-0.6,0-1-0.2-1.4
			c-0.3-0.7-1-1.3-0.3-2.1c0.6-0.7,0.8,0.6,1.2,1.2c0.2,0.6,0.2,1.6,0.8,1.3c0.3-0.2,0.6-1,0.7-1.7c0.6-3,1.5-3.5,3-1.6
			c0.6-0.8-0.2-2.8,1.2-2.9c1.7-0.1,2,0,3.2,4.1c0.5-0.1,0.2-0.9,0.3-1.3c0.3-1.6,0.8-3,2-3.6c1.2-0.6,1.8,0.8,2.2,1.9
			s1.5,1.2,1.3,2.9c-2.9-0.4-4.6,1.6-4.7,5.5c0,2.2,0.3,4.3,1.6,5.7c0.3,0.4,0.8,0.9,1.2,1.4c0.6,0.9,0.6,2.3,0.3,3.2
			c-0.2,1.1-0.8,0.2-1.3-0.1c-0.6-0.4-0.9,0-1.3,0.7c-0.5,0-1-0.2-0.8-1.1c0.3-3.3-1.2-3.3-2.3-3.6c-0.9-0.2-1.7-0.7-2.5-1.1
			c-2-1-2.9-0.1-3.5,3.2c-0.5,2.7-2.4,3.6-4,1.9C62.2,64.2,61.9,61,60.8,58.1z"/>
		<path class="st2" d="M78.7,186.7c-0.2,1.9-1.5,3.1-1.2,5.5c0.1,0.6-0.6,0.4-0.7,0c-0.5-0.8-0.8-1.6-0.8-2.8c0-1.2,0.2-2.6-0.8-3.1
			c-0.6-0.3-0.3-1-0.2-1.6c0.6-1.6-0.1-2.2-0.7-2.6c-2-1.1-4.3-2.1-5.9,0.4c-1.6,2.6-3.3,1.8-5.1,1.8c0.1-1.3,0.1-2.8,0.2-4.1
			c1.5,0.2,2.4-1.8,3.9-2.9c-2.3-0.2-0.8-3-1.3-4.5c-0.2-0.4,0.3-0.9,0.6-0.4c0.9,1.2,1.2,0.1,1.6-1.1c0.6-1.9,1.3-3.6,2.9-3
			c0.6,0.2,0.7-0.8,0.9-1.6c0.2,0,0.3,0.1,0.6,0.1c0.7,2.6,1.3,5.1,2,7.6c0.6-2.6,0.2-5.2,0.8-7.7c0.6-0.1,1.2-0.2,1.8-0.2
			c0.2,1.2,0.6,2.5,0.8,3.6c0.3,1.4,1.3,2.5,1.3,4.1C78.7,178.6,78.4,182.6,78.7,186.7z"/>
		<path class="st2" d="M68.9,198.6 M78.3,205.8c0-1,1.5-2,2.1-2.3c-0.1-1.1-0.3-2.3,0.1-3.3c-0.8-0.6-0.9-0.8-1.7-1.9
			c-0.8-0.9-2.6-0.8-3.5-0.8c-0.1,1.3,0.8,2.2,1.5,2.9c0.2,0.2,0.8-0.7,0.7,0.7c-0.1,0.7-0.6,0.8-0.9,0.8s-0.8-0.4-1-1
			c-0.2-0.3-0.3-1-0.7-0.3c-0.2,0.4-0.2,1.1,0.1,1.4 M78.3,205.8c-0.5,0.1-0.6-0.9-0.6-1.6c-0.1-0.9,0.3-1.2,0.7-1.3
			c0.3,0.2,0.7,0.4,0.6,1C78.8,204.6,78.8,205.7,78.3,205.8z"/>
		<path class="st1" d="M79.4,174.7c-0.1-1.7-0.9-2.8-1.3-4.1c-0.3-1.2-0.7-2.3-0.8-3.6c0-0.1,0-0.2,0-0.2c-1.3-1-1.8-3.8-3.2-4.7
			c-0.3-0.2-0.6-0.8-0.7-1.3c-1.3-2.7-2.8-3.1-4.5-1.4c-0.8,0.8-1.5,1.7-2.5,0.4c-0.7-0.9-1.6-0.4-2.1,1.7c-0.6,2.8-1.6,4.8-3.2,6.7
			c-0.1-1.7,0.5-2.6,0.8-3.3c1.3-2.2,1.5-4.8,1.3-7.6c0-0.6,0-1.1,0.3-1.4c1.3,1.9,2.1-0.3,2.5-1.6c1-3,2.8-4.9,4.1-4.8
			c1.6,0.1,3.7,1,5,4.5c0.2,0.7,0.6-2.7,0.9-2.8c0.5-0.2,0.8,1.9,1.2,2.7c0.3,0.9,0,1.8-0.1,2.6c-0.2,1.1-0.6-0.1-0.8-0.2
			c-0.7-0.3-0.8,0.3-0.7,1.1c0.3,2,0.3,4.2,1.6,5.8c1.3,1.4,2.5,2.9,3.7,4.5c-0.5,1.3-1.2,2.8,0.3,3.6c0.3,0.2,0.9,0.4,0.8,1.3
			c-0.1,0.9-0.7,1.2-1,1.3C80.5,173.5,79.8,173.6,79.4,174.7z"/>
		<path class="st1" d="M75.9,137.6c-0.1,1.8,1.5,0.1,0.1,2c-0.3-0.3-0.2-1.4-0.7-1.6c-0.2-0.1-0.8-0.2-0.6,0.4
			c0.7,2.1-0.1,4.5,0.5,6.6c-1-2.3-1.3-5.6-3-7.2c-0.5,0.3-0.3,1.7-1,2.2c-0.7-2.5-1.3-2-2.3-0.2c-1,1.7-1.8,4-3.7,4
			c-0.5,0-0.8,0.4-0.6,1.4c0.1,0.4,0.2,1-0.2,1.2c-0.2,0.1-0.6-0.1-0.7-0.6c-0.5-2.3-1.8-1.3-2.8-2.1c-0.6-0.4-0.7,1.1-0.7,2.1
			c-0.1,0.4-0.1,1-0.3,1c-1.4-0.1-2.6,1.1-4,0.7l0,0c0.7-1.8,1.4-3.8,2.8-4.7c0.5-0.3,0.8-0.8,0.8-1.8l0,0c0.3,0.1,0.7,0.1,0.9,0.2
			c1.2,0.7,2.1,1.2,1.4-1.9c-0.1-0.2,0-0.8,0.1-1c0.3-0.8,0.5,1.2,1.2,1.2c1.6,0.2,2.6-3.7,4.6-2c1.3,1.1,2.6,0.2,3.9,0.3
			C72.9,138.3,74.4,135.9,75.9,137.6z"/>
		<path class="st1" d="M71.2,166.8c-0.6,1.1-1.2,1.1-1.7,0.1c-0.7-1.1-1.6-1-2.3-1.6c-0.7-0.6-3.5,2.2-3.3,3.5
			c0.1,1.7,0.1,1.6-0.7,1c-1-0.7-1.5,0.8-2.1,1.9c0.7,0.6,1.3,1.3,1.8,2.5c0.3,0.8,0.5,1.7,0.5,2.6c0.6,1.2,0.2,2.6,0.3,3.9
			c1.5,0.1,2.4-1.8,3.9-2.9c-2.3-0.3-0.7-3-1.3-4.5c-0.2-0.4,0.3-0.8,0.6-0.4c0.9,1.1,1.3,0,1.6-1.1c0.6-2,1.3-3.7,2.9-3
			c0.6,0.2,0.7-0.9,0.9-1.6C72,166,71.6,165.5,71.2,166.8z"/>
		<path class="st1" d="M63.1,131.7c0.3-0.1,0.7-0.2,0.7-1.1c0-0.4,0.1-1.1,0.3-0.9c2,1.7,2.9-2.1,4.6-2.2c1.3-0.1,2.6-2,3.6,1.2
			c0.2,0.8,1.2,0.8,1.8,1.2s1.5,0.7,1.5,2.5c-2.9-1.6-5.9-1.3-8.8-0.9c-0.2,0-0.6,0.3-0.8,0.2c-1.2-0.4-2-0.3-1.8,2.3
			c0,0.4-0.1,1.1-0.6,1.2c-0.3,0.1-0.6-0.4-0.7-0.9C62.8,133.6,62.8,132.6,63.1,131.7z"/>
		<path class="st1" d="M62.7,137.7c-3.2,2.8-5.6,2-8.4,5.9c0.1,0.4,0.1,0.9,0.1,1.3c0.8-0.8,1.8-1.1,2.4-2c0.8-1.3,1.6-1.9,2.6-1.9
			c0.1-0.7-0.7-1.6,0.2-2.1c1.7-1.2,2.4-0.8,3.2-3.2C62.8,135.6,62.7,137.7,62.7,137.7z"/>
		<path class="st2" d="M63.2,205c0.2-1-0.3-1.7-0.5-2.5c1.2,0.2,0.9,2.2,1.8,3"/>
		<path class="st1" d="M75.4,167.1c-0.6,2.5-0.2,5.1-0.8,7.7c-0.7-2.6-1.3-5.1-2-7.6C73.6,166.7,74.5,166.9,75.4,167.1z"/>
		<path class="st2" d="M56.2,60c1.5-0.4,2.8-2,4.3-2.3c-0.8-1.4-2.5-1.2-3.8-0.1c-0.2,0.3-0.3,0.6-0.6,0.8
			C56.2,58.9,56.2,59.4,56.2,60z"/>
		<path class="st1" d="M62.2,125c0.5,0.4,0.3,1.2,0.2,1.9C62,126.5,62,125.8,62.2,125z"/>
		<path class="st1" d="M55.9,147.5c-0.2,0.6-0.6,0.6-0.8,0.8c-0.1-0.1-0.1-0.2-0.1-0.3C55.2,147.4,55.5,147.4,55.9,147.5L55.9,147.5
			z"/>
		<path class="st1" d="M59.1,78.5c0-0.4,0.1-0.8,0.3-1l0,0C59.4,77.8,59.3,78.2,59.1,78.5L59.1,78.5z"/>
		<path class="st2" d="M55.8,19.1c2.2-2.7-0.5-0.4,1.6-3.5c0.6-0.8,0.6-1.8,0.7-2.7c0.2-2.8,1.3-5.1,1.8-7.6c0.2-1,0.8-1.4,1.5-1.7
			C63.1,3,61.1,2.2,62.8,1c1.3-1,2.5-0.8,3.3,0.3c-1.5,1.1-0.3,3.8-1.8,4.2c-1.2,0.2-2.2,0.9-3.2,1.6c-1.2,0.8-1.6,3.1-1.8,4.8
			c-0.7,4.1-1.2,3.5-2.6,6.2"/>
		<path class="st1" d="M59.4,77.4c0.1-0.2,0.2-0.3,0.3-0.6l0,0C59.7,77,59.6,77.2,59.4,77.4L59.4,77.4z"/>
		<path class="st2" d="M83.3,110.7c-0.1,0-0.2,0-0.3,0C83.2,110.7,83.3,110.7,83.3,110.7z"/>
		<path class="st4" d="M81.4,198.3c-0.6-1-1.5-1.6-2.3-1.9c-1.7-0.8-2.8-2-3.7-4.7c-1.2-3.7-4.3-5.2-6.1-3.1
			c-0.8,1.1-1.7,1.2-2.6,0.8c-0.5-0.2-1-0.7-1.2,0.3c-0.1,0.9,0.1,2.2,1,2.1c0.6-0.1,0.9,0.2,1.2,1.3c0.3,1.8,1.8,2.1,2.8,0.8
			c0.7-1,1-1.4,1.8,0c0.7,1.2,1.5,2.3,2.8,2.1c0.6-0.1,1,0.3,1,1.6c1-0.1,2,0.1,2.8,1.1c0.8,0.9,1.6,1.6,2.5,2.1
			c0.1-0.2,0.2-0.6,0.3-0.8c0-0.2,0-0.3,0-0.6C81.5,199.2,81.4,198.8,81.4,198.3z"/>
		<path class="st4" d="M59.3,77.4c0.1-0.2,0.2-0.3,0.3-0.6c1.5-1.2,2.3-3.6,3.1-5.7c0.3-0.9,0.5-1.7,1-1.6c1.8,0.3,3.3-1.8,5-1.4
			c1.8,0.2,3.5,1.2,5.1,2.5c0.1,0.1,0.3,0.7,0.3,0.9c-0.2,2.2-1.5,3.1-2.3,4.7c-0.3,0.9-0.9,0.8-1.4,0c-0.8-1.2-1.3-1.4-1.5,0.9
			c-0.1,1.8-1,2-2,0.4s-2.1-3.1-3.3-1.6c-1.3,1.7-2.9,2.3-4.3,3.8c-0.2,0.2-0.6,0.4-0.7,0c-0.1-0.3,0.1-0.9,0.1-1.3
			C59.3,78.2,59.4,77.8,59.3,77.4z"/>
		<path class="st4" d="M74.3,100.5c0,0.1,0.1,0.3,0.1,0.4c0.1,1.7-0.3,2.6-1.4,2.2c-1.3-0.4-2.5,0.9-3.9,0.1
			c-0.7-0.3-1.3,0.7-1.6,1.9c-0.2,0.9-0.6,1.8-1.2,2.1c-1.4,0.8-3,0.4-4.3,2.8c0.2-2.9,1-4.5,1.7-6.2c0.7-1.6,1.5-2.8,2.8-2.3
			c1.5,0.4,2.6-1.2,4.1-1.2C72,100.4,73.1,100.2,74.3,100.5z"/>
		<path class="st4" d="M74.4,38.7c0.6,0.8,0.8,1.9,1.6,2.1c-0.2,0.2-0.3,0.6-0.6,0.4c-1.7-1.7-2.9,0.8-3.5,2.3c-1,2.5-1.8,1-2.6,0.3
			c-0.8-0.8-1.3-1.6-1.4,0.8c-0.1,2.2-0.8,1.8-1.5,0.9c-0.7-1-1.2-2.3-2.1-3.5c0.5,3.7-1,2.9-1.8,3.3c-0.7,0.3-0.7-0.3-0.7-1.1
			c-0.1-0.8-0.1-1.6-0.1-2.3c-0.1-0.1,0-0.3,0.1-0.4c0.5,0.6,0.7,0.2,0.8-0.6s0.3-1.6,0.8-1.8c1.8-0.9,3.6-2.3,5.5-2.5
			C71,36.5,72.6,38.1,74.4,38.7z"/>
		<path class="st1" d="M74.4,38.7c-1.8-0.4-3.5-2.2-5.4-2.1c-2,0.2-3.7,1.6-5.5,2.5c-0.6,0.2-0.7,1.1-0.8,1.8
			c-0.1,0.8-0.3,1.1-0.8,0.6c0.3-1.6,0.5-3.3,1.7-3.9c0.8-0.3,1.6-0.6,0.9-2.8c-0.3-1.1,0.7-1.8,1.3-1.9c1.5-0.3,3,0.1,4.6-0.6
			c0.3-0.1,1,0.1,1,0.9c0.1,1.2-1,0.8-1.3,2C71.8,35.4,73.4,36.1,74.4,38.7z"/>
		<path class="st4" d="M70.3,14c-1,1-1.8,1.4-2-1.3c-0.1-1.6-0.8-2.2-1.6-2.3C65.5,10,64.4,9.7,63,9.5c0.8-2.1,2.3-2.2,3.2-2.6
			c1.3-0.4,3-0.4,4.4,0.7c0.8,0.7,0.9,1.3,0.7,2.6C70.5,11.2,69.5,12,70.3,14z"/>
		<path class="st2" d="M70.3,14c-0.7-2.1,0.3-2.8,1-3.8c2.2-0.7,2.6,0.1,2,3.3c-0.3,2.1-1.3,2.6-2.3,1C70.7,14.3,70.4,14.2,70.3,14z
			"/>
		<path class="st4" d="M62.7,14.5c1.2-0.8,2-0.4,2.5-1.3c0.3-0.6,1.2,0.2,1.2,1.3s-0.1,1.9-0.9,2C64.5,16.8,63.7,15.6,62.7,14.5z"/>
		<path class="st1" d="M70.5,115.8c0.2-2.2-0.6-3.1-2-3.9c1.2-0.7,2-1,2.4,0.1C71.4,113.2,70.8,114.5,70.5,115.8z"/>
		<path class="st1" d="M80.3,144.9c-0.9,1.3-2.8,0.6-3-1.2c-0.1-0.3,0-0.6,0.1-0.7c0.2-0.3,0.6-0.2,0.7,0.1c0.3,0.4,0.7,0.8,1,1.2
			C79.5,144.7,80,144.1,80.3,144.9z"/>
		<path class="st1" d="M78.4,202.9c0.3,0.2,0.7,0.3,0.6,1c-0.2,0.7-0.2,1.8-0.7,1.9s-0.6-0.9-0.6-1.6C77.6,203.5,78,203,78.4,202.9z
			"/>
		<path class="st0" d="M101.4,111.1c0.1,0,0.1,0.1,0.1,0.1S101.5,111.3,101.4,111.1L101.4,111.1z"/>
	</g>
</g>
</svg>
